<svg width="133" height="37" viewBox="0 0 133 37" fill="none" xmlns="http://www.w3.org/2000/svg">
<path d="M68.8432 23.0961L81.9737 21.5378C83.0857 21.4059 84.075 21.649 84.9417 22.2674C85.8213 22.8841 86.3108 23.6947 86.4104 24.6991C86.4717 25.2163 86.4137 25.7215 86.2362 26.2146C86.0579 26.7012 85.7851 27.1368 85.4177 27.5213C86.1025 27.7678 86.6734 28.159 87.1304 28.6948C87.5874 29.2306 87.8569 29.8444 87.939 30.5362C88.061 31.5641 87.7677 32.4906 87.0592 33.3155C86.3621 34.126 85.4414 34.5991 84.2971 34.7349L70.4199 36.3818L68.8432 23.0961ZM72.805 25.4877L73.1122 28.0769L81.4425 27.0883C81.8368 27.0415 82.1548 26.8759 82.3964 26.5916C82.638 26.3072 82.7377 25.9873 82.6955 25.6317C82.6518 25.2632 82.4796 24.9722 82.1789 24.7587C81.8775 24.5388 81.5295 24.4523 81.1352 24.4991L72.805 25.4877ZM73.4057 30.5498L73.713 33.1391L82.9548 32.0423C83.3492 31.9955 83.6671 31.8299 83.9088 31.5455C84.1698 31.2589 84.2691 30.9357 84.2067 30.5759C84.1638 30.2139 83.9883 29.9233 83.6804 29.7042C83.3789 29.4842 83.0346 29.4005 82.6475 29.453L73.4057 30.5498ZM92.5406 21.9949L101.375 20.9465C102.435 20.8206 103.374 21.0502 104.191 21.6351C105.027 22.2177 105.492 22.9885 105.586 23.9477L106.144 28.651C106.27 29.5998 105.995 30.4585 105.319 31.2271C104.674 31.979 103.818 32.4182 102.752 32.5448L93.9171 33.5932C92.8827 33.716 91.9474 33.4861 91.1112 32.9035C90.2944 32.3186 89.8296 31.5509 89.7168 30.6006L89.1586 25.8973C89.0644 24.9381 89.3395 24.0794 89.9838 23.3211C90.6604 22.559 91.5127 22.1169 92.5406 21.9949ZM93.7871 24.7087C93.4372 24.7437 93.1468 24.8929 92.9158 25.1563C92.6962 25.4053 92.606 25.6946 92.6451 26.0244L93.0756 29.6512C93.1132 29.968 93.2718 30.2278 93.5516 30.4307C93.8283 30.6076 94.1423 30.6851 94.4937 30.663L101.515 29.8298C101.881 29.7667 102.171 29.6175 102.386 29.3822C102.611 29.1195 102.701 28.8302 102.657 28.5142L102.226 24.8873C102.187 24.5576 102.029 24.2978 101.75 24.1079C101.477 23.9043 101.163 23.8268 100.808 23.8755L93.7871 24.7087ZM107.009 20.2778L112.275 19.6529L117.327 22.8592L121.517 18.5561L126.783 17.9312L120.219 24.355L128.79 29.4547L123.524 30.0796L117.756 26.4764L113.021 31.326L107.756 31.9509L114.885 24.988L107.009 20.2778Z" fill="white"/>
<rect x="48.2793" y="15.6425" width="22.1793" height="19.552" transform="rotate(-17.7597 48.2793 15.6425)" fill="url(#paint0_linear_119_99)"/>
<rect x="47.6017" y="1.55762" width="23.3429" height="4.16281" rx="1" transform="rotate(8.97345 47.6017 1.55762)" fill="url(#paint1_linear_119_99)"/>
<path d="M11.9534 14.1733L13.0697 23.58C13.1971 24.6532 12.8919 25.6171 12.1541 26.4717C11.4099 27.3271 10.4463 27.825 9.26315 27.9654L3.34763 28.6674L2.99661 25.7097L7.8454 25.1342C8.32304 25.071 8.70623 24.8747 8.99496 24.5454C9.29431 24.1952 9.41867 23.8068 9.36803 23.3801L8.32649 14.6038L11.9534 14.1733ZM13.8992 15.6536L28.1934 13.9572L28.5283 16.7792L17.667 18.0681L17.85 19.6101L27.2664 18.4926L27.5955 21.2661L18.1792 22.3836L18.3737 24.0225L29.235 22.7335L29.5699 25.5555L15.2756 27.2519L13.8992 15.6536ZM29.939 13.75L45.0672 11.9546L45.4021 14.7766L39.5448 15.4718L40.5863 24.2481L37.1728 24.6532L36.1312 15.8769L30.2739 16.572L29.939 13.75ZM46.2309 11.8165L51.2542 11.2204L56.522 15.3353L60.69 10.1006L65.7133 9.50442L58.5545 17.8771L59.0505 22.0568L55.6369 22.4619L55.1409 18.2823L46.2309 11.8165Z" fill="white"/>
<defs>
<linearGradient id="paint0_linear_119_99" x1="48.7288" y1="25.4184" x2="70.5235" y2="25.5782" gradientUnits="userSpaceOnUse">
<stop stop-color="#D69B56"/>
<stop offset="1" stop-color="#FDDFBC"/>
</linearGradient>
<linearGradient id="paint1_linear_119_99" x1="48.0748" y1="3.63902" x2="70.9841" y2="4.4691" gradientUnits="userSpaceOnUse">
<stop stop-color="#D69B56"/>
<stop offset="1" stop-color="#FDDFBC"/>
</linearGradient>
</defs>
</svg>
