<?xml version="1.0" standalone="no"?>
<!DOCTYPE svg PUBLIC "-//W3C//DTD SVG 20010904//EN"
 "http://www.w3.org/TR/2001/REC-SVG-20010904/DTD/svg10.dtd">
<svg version="1.0" xmlns="http://www.w3.org/2000/svg"
 width="500.000000pt" height="500.000000pt" viewBox="0 0 500.000000 500.000000"
 preserveAspectRatio="xMidYMid meet">
<metadata>
Created by potrace 1.14, written by Peter Selinger 2001-2017
</metadata>
<g transform="translate(0.000000,500.000000) scale(0.100000,-0.100000)"
fill="#000000" stroke="none">
<path d="M2527 4694 c-230 -54 -342 -313 -229 -529 37 -71 127 -151 187 -166
6 -1 29 -8 51 -15 74 -22 180 -8 257 34 125 68 199 197 193 339 -3 65 -9 90
-37 149 -22 46 -114 144 -135 144 -8 0 -14 3 -14 8 0 7 -37 25 -79 37 -44 13
-136 13 -194 -1z"/>
<path d="M2327 2483 c-1 -752 -6 -1384 -11 -1403 -27 -120 -127 -255 -223
-300 -88 -41 -105 -44 -403 -49 l-295 -6 -1 -308 -1 -307 61 -1 c158 -3 498 1
528 6 310 51 531 156 705 335 38 39 143 182 143 195 0 3 11 28 25 57 31 64 63
177 81 283 10 64 13 363 14 1462 0 1318 -1 1382 -18 1387 -10 3 -76 6 -147 6
-124 0 -142 0 -182 -1 -10 0 -27 0 -38 1 -11 0 -63 0 -116 -1 -52 -2 -100 1
-107 5 -9 5 -12 -311 -15 -1361z"/>
</g>
</svg>
