<svg width="78.000000" height="63.000000" viewBox="0 0 78 63" fill="none" xmlns="http://www.w3.org/2000/svg" xmlns:xlink="http://www.w3.org/1999/xlink">
	<desc>
			Created with Pixso.
	</desc>
	<defs>
		<linearGradient id="paint_linear_504_306_0" x1="69.157166" y1="61.894928" x2="-1.659740" y2="6.017570" gradientUnits="userSpaceOnUse">
			<stop stop-color="#7D6137"/>
			<stop offset="1.000000" stop-color="#A98652"/>
		</linearGradient>
		<linearGradient id="paint_linear_504_307_0" x1="55.950897" y1="51.717575" x2="48.728653" y2="21.916840" gradientUnits="userSpaceOnUse">
			<stop stop-color="#7D6137"/>
			<stop offset="1.000000" stop-color="#A98652"/>
		</linearGradient>
		<linearGradient id="paint_linear_504_308_0" x1="27.751963" y1="44.215668" x2="6.310774" y2="23.125946" gradientUnits="userSpaceOnUse">
			<stop stop-color="#7D6137"/>
			<stop offset="1.000000" stop-color="#A98652"/>
		</linearGradient>
		<linearGradient id="paint_linear_504_309_0" x1="43.793217" y1="51.761955" x2="36.568424" y2="29.570717" gradientUnits="userSpaceOnUse">
			<stop stop-color="#7D6137"/>
			<stop offset="1.000000" stop-color="#A98652"/>
		</linearGradient>
		<linearGradient id="paint_linear_504_310_0" x1="68.119865" y1="51.804592" x2="60.903374" y2="36.567219" gradientUnits="userSpaceOnUse">
			<stop stop-color="#7D6137"/>
			<stop offset="1.000000" stop-color="#A98652"/>
		</linearGradient>
		<linearGradient id="paint_linear_504_311_0" x1="67.415741" y1="55.213562" x2="33.910419" y2="53.074875" gradientUnits="userSpaceOnUse">
			<stop stop-color="#7D6137"/>
			<stop offset="1.000000" stop-color="#A98652"/>
		</linearGradient>
		<linearGradient id="paint_linear_504_312_0" x1="30.631798" y1="30.102737" x2="20.802395" y2="20.430099" gradientUnits="userSpaceOnUse">
			<stop stop-color="#7D6137"/>
			<stop offset="1.000000" stop-color="#A98652"/>
		</linearGradient>
		<linearGradient id="paint_linear_504_313_0" x1="36.003853" y1="8.305824" x2="8.029477" y2="6.170841" gradientUnits="userSpaceOnUse">
			<stop stop-color="#7D6137"/>
			<stop offset="1.000000" stop-color="#A98652"/>
		</linearGradient>
		<linearGradient id="paint_linear_504_314_0" x1="68.291229" y1="10.474790" x2="61.960728" y2="4.391900" gradientUnits="userSpaceOnUse">
			<stop stop-color="#7D6137"/>
			<stop offset="1.000000" stop-color="#A98652"/>
		</linearGradient>
		<linearGradient id="paint_linear_504_315_0" x1="58.712463" y1="10.474035" x2="52.532528" y2="4.391162" gradientUnits="userSpaceOnUse">
			<stop stop-color="#7D6137"/>
			<stop offset="1.000000" stop-color="#A98652"/>
		</linearGradient>
		<linearGradient id="paint_linear_504_316_0" x1="49.191013" y1="10.473892" x2="43.025867" y2="4.440300" gradientUnits="userSpaceOnUse">
			<stop stop-color="#7D6137"/>
			<stop offset="1.000000" stop-color="#A98652"/>
		</linearGradient>
	</defs>
	<path id="Vector" d="M0 5.63C0.44 4.63 0.76 3.54 1.37 2.65C2.56 0.94 4.31 0.08 6.41 0C6.61 0 6.82 0 7.02 0L70.64 0C74.03 0 76.59 1.87 77.39 4.94C77.54 5.53 77.62 6.13 77.62 6.74C77.63 22.99 77.63 39.24 77.62 55.49C77.62 59.34 74.77 62.22 70.92 62.22C49.52 62.24 28.11 62.24 6.71 62.22C3.41 62.22 0.87 60.13 0.13 56.93C0.1 56.81 0.05 56.7 0 56.59L0 5.63ZM2.35 14.47L2.35 15.3C2.35 28.56 2.35 41.83 2.35 55.09C2.35 58.16 4.08 59.89 7.14 59.89L70.51 59.89C73.53 59.89 75.26 58.16 75.27 55.14C75.27 41.85 75.27 28.56 75.27 15.27C75.27 15.01 75.24 14.74 75.22 14.46L2.35 14.47ZM2.42 12.04L75.19 12.04C75.22 11.95 75.24 11.86 75.26 11.77C75.26 10.33 75.28 8.89 75.26 7.45C75.28 6.82 75.23 6.19 75.12 5.57C74.64 3.56 72.94 2.33 70.74 2.33L6.84 2.33C6.72 2.33 6.59 2.33 6.46 2.33C4.42 2.45 2.58 3.95 2.45 5.9C2.31 7.91 2.43 9.93 2.43 12.04L2.42 12.04Z" fill="url(#paint_linear_504_306_0)" fill-opacity="1.000000" fill-rule="nonzero"/>
	<path id="Vector" d="M48.9 35.29C48.9 30.36 48.9 25.43 48.9 20.51C48.9 19 49.2 18.71 50.72 18.7C52.25 18.7 53.76 18.7 55.27 18.7C56.39 18.7 56.81 19.11 56.81 20.2C56.81 30.28 56.81 40.36 56.81 50.44C56.81 51.49 56.38 51.89 55.32 51.89C53.69 51.9 52.08 51.9 50.47 51.89C49.27 51.89 48.89 51.51 48.89 50.29C48.89 45.29 48.9 40.29 48.9 35.29ZM51.3 21.11L51.3 49.49C51.5 49.51 51.7 49.54 51.89 49.55C52.72 49.55 53.55 49.55 54.4 49.55L54.4 21.11L51.3 21.11Z" fill="url(#paint_linear_504_307_0)" fill-opacity="1.000000" fill-rule="nonzero"/>
	<path id="Vector" d="M19.72 31.42C22.79 31.42 25.74 31.42 28.69 31.42C29.95 31.42 30.36 31.86 30.31 33.13C30.23 34.73 29.82 36.31 29.12 37.75C28.41 39.19 27.41 40.47 26.19 41.52C24.97 42.56 23.54 43.34 22.01 43.82C20.47 44.29 18.86 44.44 17.26 44.27C12.21 43.71 8.11 39.94 7.05 34.88C6.03 30.07 8.33 24.97 12.64 22.46C14.31 21.49 16.19 20.94 18.11 20.85C19.3 20.8 19.73 21.2 19.73 22.38C19.73 25.08 19.73 27.78 19.73 30.48L19.72 31.42ZM17.39 23.42C13.51 23.17 9.46 27.57 9.2 32.21C8.91 37.3 12.96 41.73 18.17 42C22.92 42.24 27.57 38.31 27.79 33.79L26.98 33.79C24.31 33.79 21.63 33.79 18.95 33.79C17.78 33.79 17.4 33.41 17.4 32.25C17.4 29.58 17.4 26.9 17.4 24.22L17.39 23.42Z" fill="url(#paint_linear_504_308_0)" fill-opacity="1.000000" fill-rule="nonzero"/>
	<path id="Vector" d="M44.65 39.59C44.65 43.12 44.65 46.66 44.65 50.19C44.65 51.56 44.31 51.89 42.96 51.89C41.37 51.89 39.77 51.89 38.18 51.89C37.17 51.89 36.74 51.49 36.74 50.48C36.73 43.18 36.73 35.88 36.74 28.58C36.74 27.59 37.19 27.19 38.21 27.18C39.85 27.17 41.49 27.17 43.14 27.18C44.24 27.18 44.65 27.59 44.65 28.69C44.66 32.32 44.65 35.95 44.65 39.59ZM39.14 49.48L42.25 49.48L42.25 29.58L39.14 29.58L39.14 49.48Z" fill="url(#paint_linear_504_309_0)" fill-opacity="1.000000" fill-rule="nonzero"/>
	<path id="Vector" d="M61.07 43.32C61.07 41.02 61.07 38.72 61.07 36.43C61.07 35.31 61.46 34.93 62.57 34.92C64.2 34.92 65.85 34.92 67.49 34.92C68.54 34.92 68.97 35.34 68.97 36.38C68.98 41.08 68.98 45.78 68.97 50.47C68.97 51.48 68.55 51.89 67.54 51.89C65.85 51.9 64.16 51.9 62.47 51.89C61.5 51.89 61.09 51.48 61.08 50.51C61.06 48.11 61.07 45.72 61.07 43.32ZM63.46 37.33L63.46 49.49L66.57 49.49L66.57 37.33L63.46 37.33Z" fill="url(#paint_linear_504_310_0)" fill-opacity="1.000000" fill-rule="nonzero"/>
	<path id="Vector" d="M52.99 55.21L36.39 55.21C36.14 55.23 35.89 55.22 35.64 55.18C35.06 55.05 34.71 54.69 34.7 54.07C34.67 53.8 34.74 53.53 34.91 53.32C35.07 53.1 35.31 52.96 35.57 52.91C35.85 52.86 36.12 52.83 36.4 52.84C47.49 52.84 58.58 52.84 69.67 52.84L69.97 52.84C70.9 52.87 71.43 53.31 71.42 54.04C71.42 54.77 70.89 55.21 69.97 55.22C64.31 55.22 58.65 55.22 52.99 55.21Z" fill="url(#paint_linear_504_311_0)" fill-opacity="1.000000" fill-rule="nonzero"/>
	<path id="Vector" d="M21.03 24.74C21.03 23.4 21.02 22.06 21.03 20.73C21.05 19.79 21.45 19.39 22.38 19.38C27.35 19.34 31.84 23.81 31.8 28.76C31.8 29.66 31.37 30.14 30.46 30.14C27.76 30.16 25.06 30.16 22.35 30.14C21.43 30.14 21.05 29.7 21.04 28.75C21.02 27.41 21.03 26.08 21.03 24.74ZM29.27 27.75C29.01 24.88 25.86 21.8 23.42 21.94L23.42 27.75L29.27 27.75Z" fill="url(#paint_linear_504_312_0)" fill-opacity="1.000000" fill-rule="nonzero"/>
	<path id="Vector" d="M24.04 5.94L37.6 5.94C37.85 5.93 38.11 5.94 38.36 5.97C38.98 6.09 39.35 6.49 39.35 7.13C39.36 7.4 39.28 7.66 39.1 7.87C38.93 8.08 38.69 8.22 38.42 8.26C38.17 8.3 37.92 8.32 37.67 8.31C28.57 8.31 19.48 8.31 10.39 8.31C10.17 8.32 9.94 8.31 9.72 8.28C9.08 8.17 8.63 7.67 8.68 7.08C8.69 6.79 8.81 6.5 9.02 6.29C9.23 6.08 9.51 5.96 9.8 5.96C10.21 5.92 10.61 5.94 11.02 5.94L24.04 5.94Z" fill="url(#paint_linear_504_313_0)" fill-opacity="1.000000" fill-rule="nonzero"/>
	<path id="Vector" d="M65.57 10.51C65.12 10.52 64.67 10.44 64.25 10.27C63.83 10.1 63.44 9.85 63.12 9.54C62.8 9.22 62.54 8.84 62.37 8.43C62.19 8.01 62.1 7.56 62.1 7.11C62.11 6.66 62.2 6.21 62.37 5.8C62.55 5.38 62.81 5.01 63.13 4.69C63.45 4.38 63.84 4.13 64.26 3.96C64.68 3.8 65.13 3.72 65.58 3.73C66.03 3.72 66.48 3.8 66.9 3.97C67.32 4.14 67.71 4.38 68.03 4.7C68.35 5.02 68.61 5.39 68.78 5.81C68.96 6.23 69.05 6.67 69.04 7.13C69.04 7.58 68.95 8.03 68.78 8.44C68.6 8.86 68.34 9.23 68.02 9.55C67.69 9.86 67.31 10.11 66.89 10.28C66.47 10.44 66.02 10.52 65.57 10.51ZM65.57 8.18C65.71 8.18 65.84 8.15 65.97 8.1C66.1 8.04 66.21 7.96 66.31 7.86C66.4 7.76 66.48 7.64 66.53 7.51C66.58 7.38 66.6 7.24 66.59 7.1C66.57 6.48 66.22 6.13 65.6 6.09C65.46 6.08 65.32 6.1 65.19 6.15C65.06 6.2 64.94 6.27 64.84 6.37C64.74 6.46 64.66 6.58 64.61 6.7C64.55 6.83 64.53 6.97 64.53 7.1C64.52 7.39 64.63 7.66 64.83 7.86C65.02 8.06 65.29 8.18 65.57 8.18L65.57 8.18Z" fill="url(#paint_linear_504_314_0)" fill-opacity="1.000000" fill-rule="nonzero"/>
	<path id="Vector" d="M56.03 10.51C55.35 10.5 54.7 10.29 54.15 9.91C53.59 9.53 53.16 9 52.91 8.37C52.66 7.75 52.61 7.07 52.75 6.41C52.89 5.75 53.22 5.15 53.7 4.68C54.19 4.22 54.8 3.9 55.46 3.78C56.12 3.67 56.8 3.75 57.42 4.02C58.03 4.28 58.56 4.73 58.92 5.3C59.28 5.86 59.46 6.53 59.45 7.2C59.44 7.64 59.35 8.08 59.17 8.48C58.99 8.89 58.74 9.25 58.42 9.56C58.1 9.87 57.73 10.11 57.32 10.27C56.91 10.43 56.47 10.51 56.03 10.51ZM56.08 6.09C55.94 6.08 55.8 6.1 55.67 6.15C55.54 6.2 55.43 6.28 55.33 6.38C55.23 6.47 55.15 6.59 55.1 6.72C55.05 6.85 55.02 6.99 55.03 7.12C55.02 7.26 55.05 7.4 55.1 7.53C55.15 7.66 55.23 7.78 55.33 7.87C55.43 7.97 55.54 8.05 55.67 8.1C55.8 8.15 55.94 8.18 56.08 8.18C56.35 8.18 56.62 8.07 56.82 7.87C57.01 7.67 57.12 7.41 57.12 7.13C57.12 6.85 57.01 6.59 56.82 6.39C56.62 6.2 56.35 6.09 56.08 6.09L56.08 6.09Z" fill="url(#paint_linear_504_315_0)" fill-opacity="1.000000" fill-rule="nonzero"/>
	<path id="Vector" d="M46.55 10.51C46.11 10.51 45.67 10.43 45.26 10.26C44.85 10.09 44.48 9.85 44.16 9.54C43.85 9.23 43.6 8.86 43.43 8.45C43.26 8.04 43.17 7.61 43.17 7.16C43.17 6.72 43.25 6.28 43.42 5.87C43.59 5.46 43.84 5.09 44.16 4.78C44.47 4.46 44.84 4.21 45.25 4.04C45.66 3.87 46.1 3.79 46.54 3.79C46.99 3.79 47.43 3.87 47.84 4.04C48.25 4.21 48.62 4.46 48.93 4.78C49.25 5.09 49.5 5.46 49.67 5.87C49.84 6.28 49.92 6.72 49.92 7.16C49.92 7.61 49.83 8.04 49.66 8.45C49.49 8.86 49.24 9.23 48.93 9.54C48.62 9.85 48.24 10.09 47.83 10.26C47.43 10.43 46.99 10.51 46.55 10.51ZM46.55 6.09C46.41 6.08 46.27 6.11 46.14 6.16C46.01 6.22 45.9 6.3 45.8 6.4C45.7 6.49 45.63 6.61 45.58 6.74C45.53 6.87 45.5 7.01 45.51 7.15C45.54 7.77 45.91 8.12 46.52 8.17C47.08 8.23 47.6 7.71 47.61 7.14C47.61 7 47.58 6.86 47.52 6.74C47.47 6.61 47.39 6.49 47.29 6.39C47.19 6.29 47.08 6.22 46.95 6.16C46.82 6.11 46.68 6.08 46.54 6.09L46.55 6.09Z" fill="url(#paint_linear_504_316_0)" fill-opacity="1.000000" fill-rule="nonzero"/>
</svg>
