<svg width="72.000000" height="72.000000" viewBox="0 0 72 72" fill="none" xmlns="http://www.w3.org/2000/svg" xmlns:xlink="http://www.w3.org/1999/xlink">
	<desc>
			Created with Pixso.
	</desc>
	<defs>
		<linearGradient id="paint_linear_504_322_0" x1="64.136749" y1="71.602814" x2="-1.539246" y2="6.961384" gradientUnits="userSpaceOnUse">
			<stop stop-color="#7D6137"/>
			<stop offset="1.000000" stop-color="#A98652"/>
		</linearGradient>
	</defs>
	<path id="Vector" d="M72 17.52C71.72 18.7 71.53 19.9 71.16 21.05C68.56 29.16 59.97 33.82 51.75 31.58C51.19 31.43 50.87 31.55 50.47 31.94C42.51 39.93 34.54 47.9 26.56 55.87C24.25 58.15 22.72 60.82 21.78 63.93C20.42 68.43 17.33 71.06 12.69 71.87C12.58 71.9 12.48 71.94 12.38 72L9.99 72C8.81 71.65 7.56 71.43 6.45 70.93C2.2 69.01 -0.28 64.7 0.02 60C0.31 55.57 3.41 51.54 7.76 50.26C11.28 49.22 14.19 47.36 16.75 44.77C24.48 36.94 32.28 29.19 40.06 21.42C40.43 21.04 40.54 20.74 40.4 20.2C39.8 18.01 39.68 15.72 40.04 13.48C40.39 11.24 41.22 9.1 42.46 7.2C43.71 5.3 45.34 3.69 47.25 2.47C49.16 1.25 51.31 0.45 53.55 0.12C55.11 -0.11 56.72 0.03 58.31 0.12C59.48 0.19 60.32 0.87 60.69 2.02C61.04 3.12 60.74 4.09 59.92 4.91C58.22 6.62 56.52 8.34 54.79 10.03C54.27 10.55 54.01 11.09 54.11 11.84C54.3 13.23 54.42 14.64 54.58 16.04C54.66 16.82 55.1 17.27 55.89 17.35C57.36 17.52 58.82 17.65 60.29 17.82C60.56 17.86 60.83 17.83 61.08 17.74C61.33 17.65 61.55 17.49 61.73 17.3C63.45 15.56 65.19 13.85 66.9 12.11C67.76 11.23 68.76 10.85 69.95 11.26C71.18 11.68 71.73 12.63 71.85 13.88C71.89 14.11 71.93 14.34 72 14.56L72 17.52ZM55.88 2.28C55.19 2.35 54.46 2.38 53.75 2.49C51.8 2.81 49.93 3.54 48.29 4.65C46.65 5.75 45.26 7.2 44.23 8.9C43.2 10.59 42.56 12.49 42.33 14.46C42.11 16.43 42.31 18.42 42.93 20.3C43.23 21.22 43.06 21.82 42.39 22.48C34.2 30.64 26.03 38.82 17.87 47.01C17.41 47.47 16.93 47.92 16.44 48.36C14.09 50.43 11.32 51.66 8.35 52.58C3.97 53.93 1.5 58.67 2.7 63.14C3.88 67.55 8.43 70.38 12.86 69.39C16.4 68.6 18.64 66.39 19.62 62.88C20.45 59.79 22.09 56.97 24.35 54.7C32.75 46.29 41.15 37.88 49.55 29.47C50.14 28.88 50.7 28.73 51.5 29.01C53.63 29.78 55.92 29.96 58.15 29.56C65.57 28.19 70.33 21.73 69.47 14.22C69.41 13.98 69.32 13.75 69.2 13.54C68.97 13.66 68.69 13.73 68.52 13.9C66.78 15.62 65.05 17.34 63.33 19.07C62.93 19.5 62.43 19.83 61.88 20.03C61.33 20.23 60.74 20.3 60.15 20.23C58.64 20.06 57.12 19.92 55.61 19.74C53.72 19.52 52.42 18.24 52.2 16.38C52.02 14.93 51.92 13.48 51.73 12.04C51.54 10.57 52.01 9.41 53.06 8.37C54.76 6.73 56.42 5.03 58.08 3.35C58.23 3.2 58.4 2.93 58.36 2.78C58.31 2.64 58.01 2.51 57.81 2.48C57.18 2.38 56.55 2.34 55.88 2.28Z" fill="url(#paint_linear_504_322_0)" fill-opacity="1.000000" fill-rule="nonzero"/>
</svg>
