<svg width="72.000000" height="69.000000" viewBox="0 0 72 69" fill="none" xmlns="http://www.w3.org/2000/svg" xmlns:xlink="http://www.w3.org/1999/xlink">
	<desc>
			Created with Pixso.
	</desc>
	<defs>
		<linearGradient id="paint_linear_504_318_0" x1="66.792038" y1="68.757294" x2="28.797115" y2="29.251081" gradientUnits="userSpaceOnUse">
			<stop stop-color="#7D6137"/>
			<stop offset="1.000000" stop-color="#A98652"/>
		</linearGradient>
		<linearGradient id="paint_linear_504_319_0" x1="60.047592" y1="28.007092" x2="15.562235" y2="2.722912" gradientUnits="userSpaceOnUse">
			<stop stop-color="#7D6137"/>
			<stop offset="1.000000" stop-color="#A98652"/>
		</linearGradient>
		<linearGradient id="paint_linear_504_320_0" x1="25.355675" y1="64.002808" x2="-0.608543" y2="23.414286" gradientUnits="userSpaceOnUse">
			<stop stop-color="#7D6137"/>
			<stop offset="1.000000" stop-color="#A98652"/>
		</linearGradient>
	</defs>
	<path id="Vector" d="M71.34 38.27C71.03 40.43 69.83 42.17 68.75 43.98C65.52 49.41 62.32 54.85 59.14 60.31C57.89 62.45 56.07 63.75 53.63 64.16C53.01 64.24 52.38 64.27 51.76 64.25C49.2 64.26 46.65 64.25 43.97 64.25C43.97 64.67 43.97 65.05 43.97 65.43C43.97 66.2 43.98 66.97 43.96 67.74C43.93 68.28 43.7 68.74 43.15 68.93C42.6 69.11 42.11 68.92 41.74 68.45C41.67 68.36 41.59 68.26 41.52 68.17L30.22 53.48C29.48 52.5 29.49 52.09 30.32 51.18L41.06 39.36C41.3 39.11 41.54 38.85 41.77 38.59C42.16 38.15 42.65 37.97 43.21 38.19C43.77 38.4 43.96 38.87 43.96 39.41C43.97 40.48 43.96 41.55 43.96 42.62L43.96 43.98L54.95 43.98C54.81 43.71 54.71 43.49 54.58 43.28C53.14 40.68 51.7 38.08 50.25 35.48C49.66 34.4 49.8 33.87 50.86 33.24C55.37 30.61 59.88 27.98 64.4 25.35C65.45 24.73 66.05 24.9 66.59 25.97C67.81 28.4 69.06 30.82 70.22 33.27C70.68 34.24 70.95 35.3 71.31 36.32L71.34 38.27ZM41.55 64.29C41.58 63.97 41.59 63.88 41.59 63.79C41.63 62.12 41.88 61.87 43.55 61.87C46.54 61.87 49.51 61.88 52.48 61.86C54.5 61.84 56.04 60.91 57.06 59.17C59.43 55.12 61.79 51.07 64.14 47.01C64.24 46.84 64.32 46.66 64.44 46.39L43.36 46.39C41.87 46.39 41.59 46.1 41.59 44.59C41.59 43.91 41.59 43.23 41.59 42.33L32.41 52.42C35.43 56.35 38.43 60.24 41.55 64.29ZM52.71 34.95C54.36 37.91 55.97 40.82 57.6 43.7C57.67 43.8 57.77 43.87 57.87 43.92C57.98 43.97 58.09 44 58.21 44C60.63 44.02 63.04 44.02 65.46 44C65.59 43.99 65.71 43.96 65.83 43.9C65.94 43.84 66.04 43.76 66.13 43.65C66.8 42.63 67.46 41.59 68.07 40.52C69.19 38.59 69.26 36.61 68.26 34.59C67.52 33.07 66.76 31.56 65.99 30.05C65.63 29.33 65.26 28.61 64.87 27.85L52.71 34.95Z" fill="url(#paint_linear_504_318_0)" fill-opacity="1.000000" fill-rule="nonzero"/>
	<path id="Vector" d="M42.37 20.95L36.92 10.65C36.73 10.95 36.6 11.16 36.48 11.38L32.15 19.17C31.48 20.37 30.96 20.5 29.8 19.77C25.72 17.17 21.65 14.58 17.57 11.99C16.46 11.28 16.34 10.77 17.03 9.64C18.13 7.84 19.23 6.04 20.35 4.24C22.02 1.56 24.42 0.04 27.59 0.02C34.43 -0.02 41.26 -0.02 48.09 0.06C50.67 0.1 52.73 1.38 54.11 3.56C55.51 5.77 56.77 8.07 58.1 10.34C58.23 10.55 58.37 10.77 58.53 11.04C60.04 10.28 61.52 9.54 63.01 8.78C63.65 8.45 64.31 8.04 64.99 8.67C65.7 9.34 65.26 10.03 64.94 10.7L57.05 26.99C56.49 28.13 56.29 28.25 55.05 28.11C49.54 27.49 44.02 26.87 38.51 26.25C38.32 26.23 38.14 26.19 37.96 26.17C37.4 26.1 37 25.81 36.88 25.24C36.75 24.66 37 24.2 37.51 23.89C38.9 23.06 40.3 22.22 41.69 21.38C41.9 21.26 42.11 21.12 42.37 20.95ZM61.49 12.33C61.4 12.32 61.31 12.33 61.23 12.35C60.48 12.72 59.74 13.1 58.99 13.47C57.91 14.01 57.43 13.87 56.82 12.83C55.38 10.39 53.94 7.96 52.55 5.49C51.34 3.37 49.57 2.35 47.12 2.37C43.43 2.4 39.73 2.37 36.03 2.38C35.82 2.38 35.6 2.41 35.31 2.43C35.46 2.74 35.56 2.97 35.68 3.19C38.65 8.81 41.62 14.43 44.6 20.06C45.47 21.71 45.4 21.94 43.78 22.92L41.7 24.17C42.1 24.24 42.33 24.29 42.56 24.31C46.53 24.76 50.5 25.21 54.47 25.68C54.93 25.73 55.12 25.57 55.3 25.19C56.93 21.78 58.58 18.37 60.23 14.97C60.63 14.12 61.04 13.26 61.49 12.33ZM30.37 17.31C30.43 17.27 30.47 17.25 30.49 17.21C32.1 14.33 33.71 11.46 35.3 8.57C35.33 8.46 35.35 8.34 35.34 8.22C35.33 8.1 35.3 7.99 35.25 7.88C34.43 6.19 33.6 4.51 32.73 2.85C32.66 2.73 32.56 2.63 32.45 2.56C32.34 2.48 32.21 2.43 32.07 2.41C30.52 2.38 28.96 2.37 27.42 2.41C25.73 2.45 24.21 3.08 23.22 4.42C21.83 6.28 20.65 8.31 19.36 10.31L30.37 17.31Z" fill="url(#paint_linear_504_319_0)" fill-opacity="1.000000" fill-rule="nonzero"/>
	<path id="Vector" d="M16.02 45.23L24.41 45.23C25.73 45.23 26.11 45.6 26.11 46.93C26.11 52.13 26.11 57.34 26.11 62.55C26.11 63.88 25.74 64.27 24.42 64.25C22.54 64.22 20.64 64.32 18.78 64.08C16.03 63.74 13.99 62.16 12.61 59.78C9.25 54.01 5.9 48.22 2.57 42.42C1.06 39.78 0.95 37.03 2.28 34.28C3.49 31.77 4.76 29.29 6.01 26.8C6.12 26.57 6.23 26.34 6.35 26.07L1.07 22.79C0.85 22.66 0.55 22.56 0.45 22.36C0.23 21.99 -0.02 21.54 0 21.14C0.02 20.61 0.46 20.3 1.01 20.25C2.03 20.16 3.05 20.09 4.07 20.02C9.26 19.7 14.46 19.37 19.65 19.05C20.66 18.99 20.97 19.16 21.39 20.07C23.66 24.98 25.93 29.89 28.19 34.8C28.46 35.37 28.64 35.95 28.15 36.47C27.66 37 27.08 36.89 26.47 36.66C24.98 36.07 23.49 35.51 21.94 34.92L16.02 45.23ZM5.17 22.36L5.14 22.51C6.14 23.13 7.14 23.75 8.14 24.37C9.21 25.04 9.33 25.47 8.76 26.61C7.35 29.44 5.94 32.26 4.53 35.08C3.44 37.25 3.53 39.37 4.75 41.46C6.41 44.31 8.06 47.17 9.71 50.02C9.82 50.21 9.95 50.39 10.12 50.65C10.29 50.36 10.42 50.15 10.55 49.94L20.18 33.22C20.76 32.23 21.19 32.08 22.23 32.48C23.09 32.8 23.94 33.13 24.84 33.47C24.85 33.39 24.85 33.32 24.84 33.24C23.09 29.44 21.35 25.65 19.57 21.87C19.48 21.68 19.11 21.52 18.88 21.53C17.11 21.6 15.35 21.71 13.59 21.82C10.78 22 7.97 22.17 5.17 22.36ZM23.7 47.61C20.8 47.61 17.97 47.6 15.14 47.63C14.95 47.63 14.72 47.87 14.6 48.06C13.64 49.59 12.71 51.15 11.75 52.68C11.65 52.8 11.6 52.96 11.6 53.11C11.6 53.27 11.65 53.42 11.75 53.55C12.74 55.23 13.67 56.95 14.7 58.6C15.15 59.33 15.71 59.98 16.36 60.54C18.54 62.36 21.16 61.8 23.71 61.86L23.7 47.61Z" fill="url(#paint_linear_504_320_0)" fill-opacity="1.000000" fill-rule="nonzero"/>
</svg>
