<svg width="71.000000" height="73.000000" viewBox="0 0 71 73" fill="none" xmlns="http://www.w3.org/2000/svg" xmlns:xlink="http://www.w3.org/1999/xlink">
	<desc>
			Created with Pixso.
	</desc>
	<defs>
		<linearGradient id="paint_linear_504_238_0" x1="62.499992" y1="72.000000" x2="-1.499992" y2="6.999992" gradientUnits="userSpaceOnUse">
			<stop stop-color="#7D6137"/>
			<stop offset="1.000000" stop-color="#A98652"/>
		</linearGradient>
	</defs>
	<path id="Vector" d="M43.13 61.1C43.5 62.92 43.84 64.64 44.2 66.43C45.4 66.43 46.59 66.43 47.78 66.43C49.05 66.43 50.27 66.89 51.22 67.72C52.17 68.56 52.79 69.71 52.96 70.96C53.06 71.76 52.61 72.32 51.82 72.39C51.59 72.4 51.37 72.39 51.14 72.39L18.97 72.39C17.29 72.39 16.89 71.83 17.4 70.21C18.18 67.75 19.98 66.43 22.55 66.43L25.95 66.43C26.3 64.65 26.65 62.91 27.02 61.09L26.06 61.09C19.43 61.09 12.8 61.1 6.17 61.09C3.15 61.09 0.77 59.2 0.14 56.34C0.03 55.76 -0.02 55.16 0 54.57C0 42.21 0 29.85 0 17.49C0 13.39 2.49 10.91 6.59 10.91L17.07 10.91C17.1 10.83 17.15 10.77 17.14 10.75C16.44 9.52 16.92 8.64 17.89 7.79C18.91 6.89 19.84 5.89 20.79 4.9C21.3 4.37 21.84 4.23 22.53 4.5C23.61 4.93 24.72 5.33 25.81 5.71C26.06 5.8 26.33 5.82 26.59 5.75C27.45 5.43 28.3 5.08 29.13 4.7C29.36 4.57 29.54 4.36 29.64 4.12C30.13 3.13 30.62 2.11 31.05 1.09C31.38 0.28 31.91 -0.06 32.78 0C33.49 0.05 34.22 0 34.94 0.02C35.81 0.04 36.24 0.48 36.26 1.36C36.26 1.68 36.26 2.01 36.26 2.33L36.26 3.33C36.91 3.49 37.35 3.46 37.75 2.81C38.11 2.24 38.64 1.81 39.27 1.59C39.89 1.37 40.58 1.36 41.21 1.57C41.84 1.78 42.39 2.19 42.78 2.73C43.17 3.27 43.38 3.92 43.38 4.59C43.38 5.25 43.17 5.9 42.78 6.44C42.4 6.99 41.85 7.39 41.22 7.61C39.95 8 38.51 7.59 37.8 6.45C37.42 5.82 36.99 5.69 36.31 5.86L36.31 9.75C38.32 9.75 40.3 9.75 42.27 9.73C42.44 9.73 42.64 9.52 42.76 9.35C43.02 8.95 43.22 8.53 43.47 8.13C44 7.3 44.35 6.58 43.91 5.45C43.23 3.73 44.52 1.87 46.31 1.54C46.73 1.47 47.16 1.49 47.58 1.59C48 1.7 48.39 1.89 48.73 2.15C49.07 2.41 49.35 2.74 49.56 3.11C49.77 3.48 49.9 3.9 49.95 4.32C50 4.75 49.96 5.18 49.84 5.59C49.71 6 49.5 6.38 49.22 6.71C48.95 7.04 48.6 7.3 48.22 7.49C47.83 7.67 47.41 7.78 46.98 7.79C46.79 7.78 46.6 7.83 46.44 7.93C46.28 8.03 46.16 8.18 46.08 8.35C45.55 9.35 44.96 10.29 44.42 11.27C44.29 11.55 44.07 11.78 43.81 11.94C43.54 12.09 43.23 12.16 42.92 12.13C41.01 12.11 39.09 12.13 37.18 12.13L36.32 12.13L36.32 13.7L41.61 13.7C42.83 13.7 43.4 14.08 43.4 14.89C43.4 15.7 42.81 16.08 41.61 16.08L37.37 16.08C38.17 16.6 38.84 17.06 39.56 17.48C39.76 17.57 39.98 17.61 40.2 17.59C42.13 17.59 44.07 17.59 46 17.6C46.43 17.6 46.7 17.51 46.88 17.11C47.06 16.72 47.27 16.36 47.51 16.01C48.05 15.2 48.37 14.47 47.89 13.4C47.32 12.1 48.08 10.56 49.32 9.85C49.93 9.49 50.64 9.36 51.33 9.48C52.03 9.59 52.66 9.95 53.11 10.48C53.23 10.63 53.39 10.75 53.57 10.82C53.75 10.9 53.94 10.93 54.13 10.91C57.34 10.9 60.54 10.91 63.74 10.91C67.58 10.91 70.14 13.45 70.15 17.3C70.16 29.78 70.16 42.27 70.15 54.75C70.15 58.6 67.6 61.1 63.72 61.1C57.19 61.1 50.67 61.1 44.14 61.1L43.13 61.1ZM36.26 41.99C36.26 42.68 36.28 43.34 36.26 44.01C36.24 44.85 35.81 45.28 34.97 45.3C34.22 45.32 33.48 45.27 32.74 45.32C31.9 45.37 31.38 45.04 31.06 44.27C30.63 43.24 30.14 42.24 29.67 41.23C29.58 41.03 29.47 40.78 29.29 40.7C28.35 40.27 27.38 39.88 26.41 39.51C26.23 39.45 25.98 39.55 25.77 39.62C24.72 40 23.67 40.36 22.64 40.79C21.86 41.11 21.27 40.95 20.71 40.34C19.88 39.46 19 38.62 18.13 37.76C16.41 36.04 16.39 36.28 17.37 34.15C18.25 32.25 18.3 30.53 17.19 28.77C17.02 28.49 16.79 28.24 16.5 28.07C15.51 27.57 14.49 27.11 13.47 26.67C12.74 26.36 12.39 25.87 12.42 25.07C12.46 23.83 12.42 22.58 12.42 21.34C12.42 18.96 12.2 19.22 14.42 18.21C17.05 17.02 17.05 17.02 18.1 14.33C18.42 13.53 18.26 13.28 17.42 13.28C13.77 13.28 10.12 13.28 6.48 13.28C3.84 13.29 2.38 14.75 2.38 17.4C2.38 28.54 2.38 39.69 2.38 50.84C2.38 51.1 2.41 51.36 2.42 51.65L67.77 51.65L67.77 43.35C67.77 34.72 67.77 26.08 67.77 17.44C67.77 14.74 66.32 13.29 63.64 13.29C60.61 13.29 57.58 13.29 54.55 13.28C54.1 13.28 53.87 13.38 53.68 13.84C53.48 14.4 53.1 14.89 52.61 15.24C52.11 15.58 51.53 15.76 50.92 15.76C50.74 15.76 50.56 15.8 50.41 15.9C50.26 16 50.14 16.14 50.07 16.31C49.54 17.26 48.98 18.2 48.45 19.15C48.32 19.42 48.11 19.64 47.85 19.79C47.59 19.94 47.3 20.01 47 19.99C45.34 19.96 43.67 19.99 42.01 19.99C41.83 19.99 41.65 20.02 41.43 20.04C41.58 20.55 41.71 21 41.85 21.48C45.05 21.48 48.22 21.48 51.4 21.46C51.6 21.46 51.84 21.2 51.96 21C52.77 19.79 54.13 19.25 55.45 19.64C56.1 19.83 56.66 20.23 57.07 20.78C57.47 21.32 57.69 21.98 57.7 22.66C57.7 23.34 57.49 24 57.09 24.55C56.7 25.09 56.13 25.5 55.49 25.71C54.83 25.91 54.12 25.88 53.48 25.62C52.84 25.37 52.31 24.9 51.97 24.3C51.89 24.15 51.78 24.02 51.63 23.94C51.48 23.86 51.31 23.83 51.14 23.85C49.73 23.87 48.32 23.85 46.9 23.85L41.83 23.85C41.7 24.37 41.58 24.83 41.46 25.27C41.51 25.3 41.56 25.32 41.61 25.33C43.4 25.33 45.19 25.36 46.99 25.34C47.28 25.32 47.58 25.39 47.84 25.53C48.1 25.68 48.31 25.9 48.44 26.17C48.95 27.08 49.5 27.96 49.99 28.88C50.23 29.33 50.49 29.55 51.06 29.58C51.49 29.61 51.91 29.74 52.3 29.94C52.68 30.14 53.02 30.42 53.29 30.76C53.55 31.11 53.75 31.5 53.86 31.92C53.96 32.34 53.98 32.78 53.91 33.21C53.58 35.06 51.89 36.22 50.15 35.8C48.35 35.36 47.19 33.48 47.93 31.78C48.35 30.82 48.05 30.23 47.61 29.51C47.34 29.1 47.1 28.67 46.87 28.22C46.69 27.83 46.43 27.71 46 27.71C44.06 27.74 42.13 27.71 40.19 27.73C39.99 27.71 39.8 27.73 39.61 27.81C38.89 28.25 38.19 28.73 37.39 29.25L38.21 29.25C39.45 29.25 40.69 29.24 41.94 29.25C42.85 29.26 43.42 29.76 43.4 30.48C43.37 31.21 42.84 31.62 41.94 31.63C40.68 31.64 39.41 31.63 38.15 31.63L36.31 31.63L36.31 33.19L37.15 33.19C39.06 33.19 40.97 33.21 42.88 33.19C43.2 33.16 43.53 33.23 43.81 33.4C44.09 33.56 44.31 33.8 44.44 34.09C44.99 35.09 45.59 36.07 46.14 37.07C46.21 37.22 46.32 37.35 46.47 37.43C46.61 37.52 46.78 37.55 46.95 37.54C47.61 37.54 48.25 37.77 48.77 38.18C49.3 38.59 49.67 39.16 49.83 39.8C50.02 40.45 50 41.14 49.76 41.77C49.53 42.41 49.11 42.95 48.54 43.32C48.01 43.67 47.38 43.85 46.75 43.83C46.11 43.81 45.5 43.59 44.99 43.21C43.89 42.36 43.36 40.87 43.96 39.62C44.34 38.83 44.19 38.29 43.75 37.68C43.66 37.56 43.58 37.43 43.53 37.29C43.05 35.86 42.09 35.37 40.6 35.55C39.4 35.69 38.17 35.58 36.95 35.58C36.74 35.58 36.52 35.61 36.29 35.63L36.29 39.45C36.96 39.63 37.39 39.54 37.78 38.89C38.48 37.75 39.91 37.31 41.19 37.7C41.82 37.9 42.38 38.31 42.77 38.84C43.17 39.38 43.38 40.03 43.39 40.7C43.39 41.37 43.19 42.03 42.8 42.57C42.41 43.12 41.87 43.52 41.23 43.74C40.6 43.96 39.92 43.96 39.29 43.74C38.67 43.53 38.13 43.11 37.77 42.55C37.4 41.94 36.99 41.82 36.26 41.99ZM2.44 54.11C2.01 57.11 4.15 58.87 6.48 58.74C8.36 58.63 10.26 58.71 12.14 58.71C29.36 58.71 46.58 58.71 63.81 58.71C66.49 58.71 68.18 56.69 67.66 54.11L2.44 54.11ZM33.85 2.47C33.31 2.27 33.02 2.44 32.81 2.95C32.42 3.92 31.98 4.86 31.49 5.78C31.28 6.16 30.96 6.47 30.58 6.68C29.41 7.23 28.22 7.72 27.01 8.16C26.55 8.3 26.05 8.3 25.59 8.17C24.62 7.87 23.66 7.53 22.73 7.13C22.28 6.94 22.01 7.03 21.7 7.37C21.19 7.95 20.65 8.49 20.06 8.99C19.4 9.52 19.29 10.05 19.7 10.76C20.92 12.88 20.74 14.9 19.63 17.06C19.01 18.26 18.41 19.19 17.1 19.63C16.34 19.89 15.33 20.13 14.96 20.71C14.58 21.33 14.91 22.35 14.79 23.17C14.63 24.31 14.99 25 16.12 25.29C18.24 25.82 19.31 27.29 20.05 29.29C20.63 30.81 20.91 32.15 20.05 33.57C19.2 34.99 19.58 36.02 20.79 37.15C21.82 38.11 22.63 38.5 23.88 37.78C25.48 36.85 27.01 37.07 28.72 37.8C30.47 38.54 31.81 39.44 32.34 41.33C32.44 41.68 32.68 41.99 32.79 42.35C32.96 42.88 33.29 43.04 33.83 42.87L33.83 35.56C26.83 34.7 22.29 29.09 22.16 22.93C22.07 20.08 22.97 17.28 24.69 15C26.97 11.95 30.06 10.26 33.84 9.79L33.85 2.47ZM33.85 15.88L33.85 12.26C29.08 12.65 24.26 17.07 24.58 23.17C24.91 29.7 30.54 33.02 33.86 33L33.86 29.46C30.12 28.18 28.24 25.9 28.24 22.66C28.24 19.43 30.11 17.15 33.84 15.88L33.85 15.88ZM40.7 61.13L29.45 61.13C29.1 62.89 28.75 64.63 28.39 66.41L41.76 66.41L40.7 61.13ZM35.1 27.11C35.98 27.11 36.84 26.84 37.57 26.34C38.31 25.85 38.87 25.15 39.21 24.33C39.54 23.51 39.62 22.61 39.44 21.75C39.26 20.88 38.83 20.09 38.2 19.47C37.57 18.85 36.77 18.43 35.91 18.27C35.04 18.1 34.14 18.2 33.33 18.54C32.51 18.89 31.82 19.47 31.34 20.21C30.85 20.95 30.6 21.81 30.61 22.7C30.62 23.88 31.1 25.01 31.94 25.83C32.78 26.66 33.92 27.12 35.1 27.12L35.1 27.11ZM20.14 69.96L50.01 69.96C49.42 69.2 48.76 68.81 47.88 68.81C45.27 68.81 42.67 68.81 40.06 68.81C34.18 68.81 28.3 68.81 22.41 68.81C21.97 68.8 21.52 68.89 21.13 69.09C20.73 69.29 20.39 69.59 20.14 69.96ZM41.33 40.69C40.83 40.35 40.51 39.96 40.26 40C40.01 40.05 39.6 40.5 39.61 40.76C39.61 41.03 40.05 41.44 40.32 41.46C40.59 41.48 40.86 41.07 41.33 40.69ZM51.01 31.83L50.67 31.83C50.49 32.12 50.13 32.44 50.16 32.71C50.19 32.98 50.59 33.24 50.83 33.51C51.08 33.24 51.49 33.01 51.52 32.72C51.56 32.43 51.19 32.13 51.01 31.83ZM47.07 39.81L46.71 39.79C46.51 40.08 46.14 40.38 46.17 40.65C46.2 40.92 46.62 41.17 46.87 41.43C47.1 41.19 47.51 40.97 47.53 40.71C47.56 40.45 47.24 40.11 47.07 39.81ZM47.7 4.83L47.7 4.51C47.42 4.31 47.12 3.91 46.87 3.94C46.62 3.97 46.18 4.39 46.18 4.65C46.17 4.91 46.58 5.33 46.85 5.37C47.13 5.41 47.41 5.03 47.7 4.83ZM51.88 12.66C51.41 12.28 51.12 11.87 50.87 11.89C50.61 11.9 50.17 12.32 50.16 12.58C50.15 12.84 50.54 13.3 50.81 13.34C51.07 13.38 51.39 13 51.88 12.66L51.88 12.66ZM54.78 21.79L54.42 21.79C54.24 22.09 53.94 22.38 53.91 22.69C53.86 23.12 54.19 23.51 54.65 23.39C54.8 23.33 54.94 23.23 55.05 23.1C55.16 22.98 55.24 22.83 55.28 22.67C55.3 22.39 54.97 22.08 54.79 21.79L54.78 21.79ZM41.34 4.61C40.85 4.25 40.55 3.86 40.3 3.89C40.06 3.91 39.61 4.33 39.61 4.58C39.61 4.83 40 5.28 40.27 5.32C40.54 5.36 40.84 4.97 41.34 4.61Z" fill="url(#paint_linear_504_238_0)" fill-opacity="1.000000" fill-rule="nonzero"/>
</svg>
