<svg width="79.000000" height="78.000000" viewBox="0 0 79 78" fill="none" xmlns="http://www.w3.org/2000/svg" xmlns:xlink="http://www.w3.org/1999/xlink">
	<desc>
			Created with Pixso.
	</desc>
	<defs>
		<linearGradient id="paint_linear_504_328_0" x1="62.303162" y1="77.456207" x2="-1.495247" y2="14.645988" gradientUnits="userSpaceOnUse">
			<stop stop-color="#7D6137"/>
			<stop offset="1.000000" stop-color="#A98652"/>
		</linearGradient>
		<linearGradient id="paint_linear_504_329_0" x1="58.793434" y1="9.590873" x2="49.989059" y2="0.932449" gradientUnits="userSpaceOnUse">
			<stop stop-color="#7D6137"/>
			<stop offset="1.000000" stop-color="#A98652"/>
		</linearGradient>
		<linearGradient id="paint_linear_504_330_0" x1="76.950378" y1="26.500580" x2="68.183609" y2="17.871872" gradientUnits="userSpaceOnUse">
			<stop stop-color="#7D6137"/>
			<stop offset="1.000000" stop-color="#A98652"/>
		</linearGradient>
		<linearGradient id="paint_linear_504_331_0" x1="72.068832" y1="50.164902" x2="67.130867" y2="41.904037" gradientUnits="userSpaceOnUse">
			<stop stop-color="#7D6137"/>
			<stop offset="1.000000" stop-color="#A98652"/>
		</linearGradient>
		<linearGradient id="paint_linear_504_332_0" x1="36.722904" y1="10.116822" x2="30.784138" y2="2.562336" gradientUnits="userSpaceOnUse">
			<stop stop-color="#7D6137"/>
			<stop offset="1.000000" stop-color="#A98652"/>
		</linearGradient>
	</defs>
	<path id="Vector" d="M39.86 21.7C42.39 18.17 43.77 14.35 43.98 10.12C44 9.74 43.98 9.37 44.03 8.99C44.11 8.24 44.57 7.81 45.23 7.88C45.95 7.96 46.23 8.41 46.24 9.1C46.24 11.49 45.87 13.86 45.15 16.13C44.37 18.59 43.19 20.91 41.67 22.99L47.98 28.54C48.1 28.28 48.25 28.04 48.43 27.82C52.87 23.36 57.31 18.9 61.78 14.46C61.94 14.28 62.11 14.11 62.3 13.95C62.79 13.58 63.31 13.57 63.75 14C64.2 14.44 64.21 15.01 63.83 15.53C63.66 15.73 63.47 15.92 63.27 16.1C58.86 20.52 54.45 24.93 50.03 29.34C49.81 29.54 49.58 29.72 49.33 29.88L54.67 35.97C56.64 35 58.55 33.92 60.55 33.06C63.07 32 65.75 31.6 68.47 31.56C69.4 31.54 69.93 31.96 69.94 32.67C69.94 33.38 69.43 33.77 68.48 33.79C63.97 33.88 59.19 35.48 56.14 37.97C56.29 38.19 56.44 38.43 56.6 38.66C58.44 41.28 60.2 43.95 61.21 47C61.64 48.32 61.89 49.68 61.95 51.07C62.03 52.8 61.07 53.97 59.45 54.61C54.42 56.6 49.4 58.59 44.39 60.59C34.41 64.57 24.43 68.56 14.46 72.57C10.29 74.23 6.12 75.9 1.95 77.57C1.39 77.79 0.84 78.06 0.32 77.54C-0.21 77.01 0.01 76.41 0.25 75.82C3.43 67.87 6.62 59.93 9.79 51.98C12.57 45.03 15.36 38.08 18.13 31.13C19.84 26.86 21.54 22.59 23.23 18.31C23.96 16.49 25.58 15.5 27.7 15.88C29.34 16.18 31.02 16.6 32.51 17.32C34.67 18.36 36.68 19.71 38.75 20.94C39.12 21.15 39.45 21.41 39.86 21.7ZM38.46 23.52C36.42 21.62 31.19 18.78 28.66 18.22C28.06 18.09 27.45 18.02 26.84 18.03C25.94 18.03 25.33 18.46 25.31 19.33C25.27 20.39 25.41 21.45 25.72 22.46C26.89 25.98 28.91 29.04 31.15 31.97C36.82 39.37 43.44 45.75 51.58 50.4C53.22 51.34 55 52.03 56.85 52.46C59.46 53.05 60.07 51.93 59.69 49.82C59.45 48.64 59.08 47.49 58.58 46.4C57.51 43.88 56.02 41.6 54.39 39.39C53.54 40.23 52.74 41.01 51.95 41.81C51.17 42.61 50.48 42.73 49.95 42.2C49.43 41.68 49.52 41.07 50.32 40.27C51.2 39.38 52.08 38.48 53.05 37.49L47.84 31.58C47.55 31.86 47.36 32.03 47.17 32.21C45.66 33.73 44.14 35.25 42.62 36.76C41.96 37.42 41.31 37.48 40.81 36.96C40.35 36.47 40.42 35.82 41.04 35.2C42.44 33.79 43.83 32.38 45.25 31C45.57 30.69 45.98 30.47 46.44 30.14L40.38 24.82L37.64 27.41C37.48 27.56 37.34 27.72 37.17 27.86C36.65 28.29 35.99 28.29 35.59 27.84C35.13 27.31 35.16 26.75 35.64 26.26C36.57 25.33 37.52 24.44 38.46 23.52ZM23.92 66.34C24.23 66.24 24.48 66.17 24.73 66.07C26.86 65.22 28.98 64.34 31.13 63.52C31.67 63.31 31.77 63.03 31.72 62.51C31.55 60.94 31.42 59.36 31.28 57.78C30.67 50.72 30 43.65 29.49 36.58C29.31 34.2 28.73 32.13 27.29 30.15C25.8 28.09 24.74 25.73 23.52 23.56C22.68 25.67 21.76 27.95 20.86 30.24C20.78 30.55 20.76 30.88 20.81 31.19C21.14 35.11 21.48 39.03 21.83 42.95C22.35 48.87 22.87 54.79 23.4 60.71C23.57 62.58 23.74 64.43 23.92 66.34ZM13.91 70.42C16.46 69.4 18.94 68.41 21.41 67.39C21.57 67.32 21.71 66.98 21.7 66.77C21.63 65.62 21.52 64.48 21.42 63.34C20.73 55.55 20.04 47.76 19.35 39.97C19.21 38.49 19.07 37 18.93 35.52C18.73 35.7 18.57 35.94 18.48 36.2C16.51 41.11 14.54 46.03 12.61 50.96C12.41 51.5 12.33 52.08 12.37 52.66C12.64 56.13 12.96 59.59 13.26 63.06C13.47 65.47 13.69 67.9 13.91 70.42ZM33.94 62.35C34.32 62.22 34.58 62.14 34.86 62.02L40.65 59.69C41.78 59.24 41.78 59.24 41.67 58.04C41.31 53.96 40.96 49.88 40.57 45.8C40.52 45.47 40.37 45.16 40.14 44.92C37.52 42.21 34.88 39.51 32.23 36.82C32.09 36.68 31.95 36.55 31.65 36.27C32.43 45.06 33.18 53.66 33.94 62.35L33.94 62.35ZM3.07 74.73C3.52 74.57 3.77 74.49 4.01 74.39C6.34 73.45 8.66 72.5 11 71.6C11.53 71.38 11.73 71.17 11.68 70.56C11.35 67.07 11.08 63.58 10.78 60.09C10.68 58.94 10.57 57.8 10.47 56.65L10.3 56.64C7.93 62.61 5.54 68.58 3.07 74.73ZM42.97 47.31C43.3 51.06 43.62 54.67 43.94 58.37L54.33 54.2C50.06 52.52 46.6 49.93 42.97 47.31Z" fill="url(#paint_linear_504_328_0)" fill-opacity="1.000000" fill-rule="nonzero"/>
	<path id="Vector" d="M50.19 4.84C50.18 4.21 50.3 3.58 50.53 3C50.77 2.41 51.12 1.88 51.56 1.43C52 0.98 52.52 0.62 53.1 0.38C53.68 0.13 54.3 0 54.93 0C55.57 -0.01 56.2 0.1 56.79 0.34C57.39 0.57 57.92 0.92 58.38 1.37C58.84 1.81 59.2 2.34 59.45 2.93C59.7 3.51 59.84 4.14 59.84 4.78C59.84 6.05 59.34 7.27 58.45 8.18C57.56 9.09 56.35 9.61 55.08 9.64C54.44 9.65 53.81 9.53 53.22 9.29C52.63 9.05 52.09 8.7 51.63 8.26C51.18 7.81 50.82 7.28 50.57 6.69C50.32 6.1 50.19 5.47 50.19 4.84ZM55.04 2.24C54.71 2.23 54.37 2.29 54.06 2.42C53.75 2.54 53.47 2.73 53.23 2.96C52.99 3.19 52.8 3.47 52.67 3.78C52.53 4.09 52.47 4.42 52.46 4.76C52.44 5.11 52.48 5.46 52.59 5.8C52.7 6.13 52.88 6.44 53.12 6.7C53.36 6.96 53.64 7.17 53.96 7.31C54.28 7.46 54.63 7.54 54.98 7.55C55.33 7.55 55.68 7.49 56.01 7.36C56.33 7.22 56.63 7.03 56.87 6.77C57.12 6.52 57.31 6.22 57.44 5.9C57.56 5.57 57.62 5.22 57.61 4.87C57.61 4.18 57.35 3.51 56.87 3.02C56.39 2.53 55.73 2.25 55.04 2.24Z" fill="url(#paint_linear_504_329_0)" fill-opacity="1.000000" fill-rule="nonzero"/>
	<path id="Vector" d="M68.38 21.7C68.39 20.75 68.68 19.82 69.22 19.04C69.76 18.25 70.51 17.64 71.4 17.29C72.28 16.93 73.25 16.84 74.18 17.04C75.11 17.24 75.96 17.7 76.63 18.38C77.29 19.06 77.74 19.93 77.91 20.86C78.09 21.8 77.98 22.76 77.61 23.64C77.23 24.51 76.61 25.25 75.81 25.77C75.01 26.29 74.08 26.56 73.13 26.55C71.85 26.53 70.64 26.01 69.76 25.1C68.87 24.19 68.37 22.97 68.38 21.7ZM73.15 24.3C73.49 24.32 73.83 24.26 74.15 24.13C74.47 24.01 74.76 23.82 75.01 23.59C75.26 23.35 75.45 23.06 75.58 22.74C75.72 22.43 75.78 22.09 75.78 21.75C75.78 21.07 75.51 20.42 75.04 19.94C74.57 19.45 73.93 19.17 73.25 19.14C72.91 19.13 72.57 19.19 72.25 19.32C71.93 19.44 71.64 19.62 71.39 19.86C71.15 20.09 70.95 20.38 70.81 20.69C70.68 21 70.6 21.34 70.6 21.68C70.59 22.02 70.64 22.37 70.76 22.68C70.89 23 71.07 23.29 71.31 23.54C71.55 23.78 71.84 23.98 72.15 24.11C72.47 24.24 72.81 24.31 73.15 24.3Z" fill="url(#paint_linear_504_330_0)" fill-opacity="1.000000" fill-rule="nonzero"/>
	<path id="Vector" d="M72.66 47.82C72.6 48.35 72.53 48.87 72.42 49.39C72.24 50.09 71.69 50.31 71.05 50.17C70.91 50.15 70.78 50.1 70.67 50.03C70.55 49.96 70.46 49.86 70.38 49.75C70.31 49.63 70.25 49.51 70.23 49.37C70.21 49.24 70.21 49.1 70.25 48.97C70.68 46.5 69.6 44.67 67.82 43.13C67.18 42.58 67.07 41.91 67.51 41.4C67.94 40.88 68.58 40.89 69.22 41.37C71.27 42.88 72.61 45.44 72.66 47.82Z" fill="url(#paint_linear_504_331_0)" fill-opacity="1.000000" fill-rule="nonzero"/>
	<path id="Vector" d="M37.43 8.86C37.45 9.6 37.08 10.09 36.4 10.15C35.66 10.22 35.36 9.79 35.23 9.12C35.12 8.41 34.94 7.71 34.71 7.03C34.47 6.33 34.08 5.69 33.57 5.15C33.07 4.61 32.45 4.19 31.77 3.91C31.01 3.58 30.75 3 31.02 2.38C31.3 1.77 31.88 1.59 32.66 1.88C35.25 2.86 37.32 5.9 37.43 8.86Z" fill="url(#paint_linear_504_332_0)" fill-opacity="1.000000" fill-rule="nonzero"/>
</svg>
