<svg width="64.000000" height="80.000000" viewBox="0 0 64 80" fill="none" xmlns="http://www.w3.org/2000/svg" xmlns:xlink="http://www.w3.org/1999/xlink">
	<desc>
			Created with Pixso.
	</desc>
	<defs>
		<linearGradient id="paint_linear_504_326_0" x1="57.010429" y1="79.558693" x2="-1.368263" y2="7.734886" gradientUnits="userSpaceOnUse">
			<stop stop-color="#7D6137"/>
			<stop offset="1.000000" stop-color="#A98652"/>
		</linearGradient>
	</defs>
	<path id="Vector" d="M33.56 0C35.15 0.47 36.82 0.77 38.3 1.46C48.15 6.08 49.78 19.73 41.32 26.62C40.8 27.04 40.58 27.46 40.63 28.12C40.68 28.71 40.63 29.31 40.63 29.99C42.04 29.99 43.4 30.01 44.75 29.96C44.94 29.96 45.18 29.58 45.29 29.33C48.22 22.92 51.11 16.49 54.06 10.08C54.39 9.41 54.85 8.83 55.43 8.37C57.22 6.94 59.09 5.6 60.93 4.22C61.39 3.87 61.87 3.58 62.48 3.87C63.09 4.17 63.19 4.71 63.25 5.3C63.51 7.75 63.79 10.22 63.99 12.67C64.02 13.24 63.91 13.8 63.67 14.31C61.46 19.26 59.21 24.19 56.97 29.13C56.85 29.39 56.76 29.64 56.61 30L57.91 30C59.16 30.01 59.63 30.59 59.4 31.84C59.03 33.85 58.62 35.87 58.29 37.89C56.92 46.24 56.01 54.65 56.37 63.14C56.52 66.84 56.92 70.52 58.19 74.02C58.66 75.33 59.35 76.56 60 77.79C60.47 78.66 60.44 79.35 59.79 79.78C59.13 80.21 58.47 79.99 57.92 79.15C56.27 76.67 55.41 73.87 54.83 70.98C53.7 65.34 53.68 59.65 53.98 53.95C54.38 46.91 55.27 39.9 56.65 32.99C56.67 32.84 56.68 32.7 56.68 32.55L43.11 32.55L43.11 34.51C43.11 35.39 43.11 36.28 43.11 37.16C43.11 38.29 42.68 38.73 41.58 38.74C40.49 38.75 39.38 38.74 38.22 38.74C38.07 40.84 37.29 42.58 35.6 43.82C34.43 44.69 32.98 45.1 31.54 44.97C28.42 44.74 26.19 42.34 25.83 38.75C24.75 38.75 23.66 38.75 22.56 38.75C21.35 38.75 20.94 38.33 20.94 37.11C20.94 35.61 20.94 34.1 20.94 32.55L7.38 32.55L7.38 33.39C7.38 37.92 7.39 42.45 7.36 46.98C7.35 47.52 7.21 48.05 6.95 48.52C5.81 50.64 4.61 52.73 3.34 54.99C4.22 54.99 4.99 54.99 5.77 54.99C6.97 54.99 7.36 55.41 7.38 56.64C7.41 58.48 7.28 60.35 7.53 62.17C7.78 64.1 8.73 65.87 10.2 67.13C11.66 68.39 13.54 69.06 15.46 68.99C20.09 68.87 24.69 68.39 29.09 66.83C31.05 66.13 32.89 65.05 34.76 64.11C35.26 63.86 35.71 63.59 36.27 63.89C37.16 64.37 37.21 65.56 36.25 66.09C34.35 67.15 32.45 68.3 30.41 68.99C27.84 69.85 25.14 70.29 22.5 70.91C22.35 70.95 22.2 70.98 22.01 71.02C22.45 73.42 22.88 75.8 23.31 78.18C23.48 79.14 23.16 79.79 22.41 79.96C21.66 80.13 21.08 79.64 20.91 78.69C20.49 76.49 20.1 74.29 19.7 72.09C19.65 71.84 19.59 71.59 19.53 71.28C18.5 71.34 17.47 71.39 16.44 71.46C9.9 71.93 4.91 67.22 4.9 60.57L4.9 57.49C3.8 57.49 2.74 57.49 1.67 57.49C0.08 57.49 -0.42 56.62 0.36 55.23C1.75 52.74 3.17 50.27 4.54 47.77C4.76 47.37 4.88 46.92 4.89 46.46C4.91 41.66 4.9 36.88 4.9 32.09C4.9 30.28 5.07 30.1 6.93 29.94C6.85 29.66 6.79 29.4 6.71 29.15C4.54 22.4 2.38 15.65 0.21 8.9C-0.24 7.48 -0.03 7.05 1.37 6.59C4.05 5.7 6.73 4.82 9.41 3.94C10.64 3.52 11.13 3.78 11.54 5.06C14.11 13.04 16.68 21.02 19.24 29.01C19.35 29.33 19.46 29.63 19.57 29.97L23.39 29.97C23.39 29.11 23.43 28.26 23.37 27.42C23.36 27.19 23.09 26.95 22.88 26.79C19.07 23.61 17.17 19.51 17.25 14.51C17.36 7.38 22.93 1.09 29.9 0.15C30.1 0.11 30.29 0.06 30.48 0L33.56 0ZM34.5 17.61C35.3 15.78 36 14.05 36.82 12.39C37.38 11.25 38.09 10.99 38.81 11.43C39.53 11.88 39.56 12.57 38.9 13.67C38.15 14.87 37.63 16.2 37.36 17.59C37.62 17.61 37.81 17.63 38.02 17.64C38.88 17.67 39.4 18.13 39.4 18.86C39.41 19.6 38.87 20.1 38.03 20.13C37.62 20.15 37.21 20.13 36.62 20.13C36.28 23.41 35.95 26.65 35.62 29.93L38.18 29.93C38.18 29.04 38.24 28.21 38.16 27.38C38.06 26.29 38.49 25.62 39.35 24.99C44.4 21.29 45.81 14.16 42.65 8.66C39.48 3.17 32.65 0.97 26.99 3.59C18.29 7.62 17.14 19.56 24.93 25.18C25.61 25.67 25.92 26.22 25.88 27.05C25.83 28.01 25.87 28.96 25.87 29.91L28.42 29.91C28.09 26.61 27.76 23.38 27.44 20.11C26.8 20.11 26.34 20.14 25.88 20.11C25.11 20.06 24.6 19.5 24.64 18.8C24.69 18.09 25.18 17.66 25.93 17.63C26.18 17.62 26.43 17.63 26.74 17.63C26.69 17.35 26.62 17.07 26.53 16.8C26.01 15.64 25.5 14.48 24.94 13.35C24.53 12.53 24.58 11.84 25.23 11.43C25.87 11.03 26.54 11.25 27.03 12.04C27.24 12.34 27.42 12.65 27.58 12.98C28.22 14.5 28.83 16.03 29.48 17.61L34.5 17.61ZM6.17 7.65L2.78 8.78C5.06 15.91 7.32 22.94 9.57 29.96L13.34 29.96C10.94 22.51 8.57 15.12 6.17 7.65ZM23.43 36.18L40.61 36.18L40.61 32.53L23.43 32.53L23.43 36.18ZM29.93 20.18C30.25 23.46 30.56 26.68 30.87 29.93L33.16 29.93C33.48 26.65 33.78 23.43 34.1 20.18L29.93 20.18ZM56.12 11.49C53.31 17.67 50.54 23.79 47.75 29.95C49.41 30.06 49.41 30.06 50.03 28.69C52.32 23.64 54.6 18.59 56.89 13.54C57.1 13.1 57.29 12.66 57.51 12.14L56.12 11.49ZM59.77 13.2C57.22 18.81 54.7 24.36 52.17 29.95C53.83 30.06 53.83 30.06 54.45 28.7C56.28 24.65 58.13 20.59 59.97 16.53C60.37 15.66 60.76 14.79 61.18 13.86L59.77 13.2ZM16.94 29.91C14.45 22.15 11.95 14.37 9.45 6.58L8.55 6.88C8.64 7.21 8.71 7.48 8.79 7.75C11.09 14.91 13.41 22.06 15.68 29.23C15.91 29.95 16.24 30.14 16.94 29.91ZM35.68 38.78L28.36 38.78C28.36 39.77 28.74 40.71 29.43 41.41C30.12 42.11 31.05 42.5 32.02 42.5C32.99 42.5 33.92 42.11 34.61 41.41C35.3 40.71 35.68 39.77 35.68 38.78ZM57.93 9.58L61.36 11.17C61.22 9.83 61.1 8.63 60.97 7.31L57.93 9.58Z" fill="url(#paint_linear_504_326_0)" fill-opacity="1.000000" fill-rule="nonzero"/>
</svg>
