<svg width="73.000000" height="74.000000" viewBox="0 0 73 74" fill="none" xmlns="http://www.w3.org/2000/svg" xmlns:xlink="http://www.w3.org/1999/xlink">
	<desc>
			Created with Pixso.
	</desc>
	<defs>
		<linearGradient id="paint_linear_504_298_0" x1="67.001968" y1="72.797958" x2="16.952751" y2="38.984245" gradientUnits="userSpaceOnUse">
			<stop stop-color="#7D6137"/>
			<stop offset="1.000000" stop-color="#A98652"/>
		</linearGradient>
		<linearGradient id="paint_linear_504_299_0" x1="70.506874" y1="29.500635" x2="49.683655" y2="2.868118" gradientUnits="userSpaceOnUse">
			<stop stop-color="#7D6137"/>
			<stop offset="1.000000" stop-color="#A98652"/>
		</linearGradient>
		<linearGradient id="paint_linear_504_300_0" x1="20.312880" y1="72.834358" x2="-0.487432" y2="46.192390" gradientUnits="userSpaceOnUse">
			<stop stop-color="#7D6137"/>
			<stop offset="1.000000" stop-color="#A98652"/>
		</linearGradient>
		<linearGradient id="paint_linear_504_301_0" x1="44.284649" y1="46.651817" x2="23.475536" y2="28.215219" gradientUnits="userSpaceOnUse">
			<stop stop-color="#7D6137"/>
			<stop offset="1.000000" stop-color="#A98652"/>
		</linearGradient>
		<linearGradient id="paint_linear_504_302_0" x1="41.791428" y1="37.542633" x2="-1.002996" y2="12.905010" gradientUnits="userSpaceOnUse">
			<stop stop-color="#7D6137"/>
			<stop offset="1.000000" stop-color="#A98652"/>
		</linearGradient>
		<linearGradient id="paint_linear_504_303_0" x1="66.055542" y1="17.045832" x2="55.649296" y2="6.803463" gradientUnits="userSpaceOnUse">
			<stop stop-color="#7D6137"/>
			<stop offset="1.000000" stop-color="#A98652"/>
		</linearGradient>
		<linearGradient id="paint_linear_504_304_0" x1="15.865156" y1="60.384323" x2="5.462375" y2="50.145378" gradientUnits="userSpaceOnUse">
			<stop stop-color="#7D6137"/>
			<stop offset="1.000000" stop-color="#A98652"/>
		</linearGradient>
	</defs>
	<path id="Vector" d="M18.13 70.72L18.9 70.72C30.61 70.72 42.32 70.72 54.03 70.72C62.02 70.71 68.58 65.42 70.34 57.63C72.37 48.65 66.21 39.4 57.11 37.95C55.07 37.62 52.95 37.73 50.86 37.64C50.58 37.65 50.29 37.64 50.01 37.61L49.99 35.39C53.89 35.28 57.79 35.2 61.48 36.82C64.99 38.36 67.83 40.69 69.93 43.9C71.54 46.35 72.55 49.15 72.86 52.06C72.89 52.25 72.94 52.43 72.99 52.61L72.99 55.75C72.94 55.95 72.89 56.16 72.85 56.37C71.71 64.02 67.52 69.24 60.28 71.95C58.84 72.49 57.25 72.66 55.73 73L18.12 73L18.13 70.72Z" fill="url(#paint_linear_504_298_0)" fill-opacity="1.000000" fill-rule="nonzero"/>
	<path id="Vector" d="M73 12.67C72.52 14.39 72.22 16.16 71.53 17.77C69.54 22.44 66.22 26.11 62.38 29.33C61.91 29.73 61.37 29.79 60.89 29.38C56.41 25.61 52.61 21.33 50.84 15.6C49.66 11.78 49.95 8.09 52.34 4.75C53.66 2.9 55.51 1.5 57.63 0.71C59.76 -0.08 62.07 -0.22 64.28 0.31C66.48 0.85 68.48 2.03 70.01 3.7C71.54 5.38 72.53 7.47 72.87 9.71C72.9 9.85 72.94 9.98 73 10.11L73 12.67ZM61.59 27.03C65.31 23.62 68.53 19.95 70.11 15.13C70.68 13.48 70.85 11.72 70.6 10C70.32 8.16 69.49 6.45 68.21 5.1C66.93 3.75 65.27 2.82 63.45 2.44C61.63 2.06 59.73 2.25 58.02 2.98C56.31 3.71 54.86 4.95 53.88 6.52C52.13 9.32 52.12 12.28 53.12 15.29C54.71 20.05 57.9 23.65 61.59 27.03Z" fill="url(#paint_linear_504_299_0)" fill-opacity="1.000000" fill-rule="nonzero"/>
	<path id="Vector" d="M10.98 72.99C7.62 70.23 4.69 67.09 2.51 63.28C0.99 60.63 0 57.81 7.62e-5 54.71C0 51.81 1.1 49.03 3.08 46.92C5.05 44.81 7.76 43.53 10.64 43.34C13.53 43.15 16.38 44.07 18.61 45.9C20.85 47.73 22.31 50.35 22.69 53.21C23.09 56.27 22.36 59.12 21.04 61.83C18.9 66.22 15.74 69.79 11.96 72.84C11.91 72.89 11.87 72.94 11.83 72.99L10.98 72.99ZM11.52 70.45C12.99 68.85 14.51 67.35 15.85 65.71C18.17 62.86 20.03 59.75 20.44 55.99C20.86 52.21 19.51 49.14 16.31 47.08C13.11 45.02 9.76 45.02 6.56 47.04C3.31 49.09 1.97 52.18 2.36 55.99C2.62 58.52 3.63 60.79 4.96 62.92C6.71 65.73 8.89 68.15 11.52 70.45Z" fill="url(#paint_linear_504_300_0)" fill-opacity="1.000000" fill-rule="nonzero"/>
	<path id="Vector" d="M35.28 46.76C32.74 46.76 30.2 46.76 27.67 46.76C25.38 46.76 23.96 45.34 23.96 43.08C23.96 38.69 23.96 34.29 23.96 29.9C23.96 27.67 25.38 26.23 27.6 26.22C32.78 26.22 37.95 26.22 43.13 26.22C45.32 26.22 46.76 27.66 46.77 29.83C46.77 34.27 46.77 38.71 46.77 43.16C46.77 45.33 45.31 46.75 43.13 46.76C40.51 46.76 37.9 46.76 35.28 46.76ZM39.92 28.5C39.92 30.75 39.92 32.91 39.92 35.07C39.92 36.08 39.51 36.48 38.49 36.49C36.4 36.49 34.31 36.49 32.22 36.49C31.2 36.49 30.8 36.08 30.8 35.07C30.8 33.14 30.8 31.22 30.8 29.29L30.8 28.5C29.68 28.5 28.66 28.5 27.65 28.5C26.63 28.5 26.24 28.91 26.24 29.94C26.24 34.31 26.24 38.68 26.24 43.05C26.24 44.07 26.64 44.47 27.67 44.47C32.79 44.47 37.92 44.47 43.05 44.47C44.08 44.47 44.48 44.07 44.48 43.05C44.48 41.46 44.48 39.87 44.48 38.28C44.48 35.48 44.48 32.67 44.48 29.87C44.48 28.93 44.07 28.51 43.15 28.5C42.1 28.5 41.06 28.5 39.92 28.5ZM37.61 28.55L33.11 28.55L33.11 34.16L37.61 34.16L37.61 28.55Z" fill="url(#paint_linear_504_301_0)" fill-opacity="1.000000" fill-rule="nonzero"/>
	<path id="Vector" d="M46.9 12.51C46.64 12.54 46.38 12.55 46.12 12.53C35.38 12.53 24.64 12.53 13.9 12.53C8.23 12.53 3.67 16.22 2.51 21.7C1.06 28.51 6.36 35.22 13.33 35.34C15.65 35.38 18.36 35.34 20.69 35.34L20.69 37.6C17.26 37.53 13.79 38.03 10.4 37.22C3.99 35.68 -0.36 29.71 0.02 23.09C0.22 19.91 1.53 16.89 3.71 14.57C5.9 12.25 8.83 10.77 11.99 10.38C12.68 10.3 13.36 10.26 14.05 10.26C19.28 10.25 24.51 10.25 29.73 10.26C35.22 10.26 40.71 10.26 46.2 10.26C46.44 10.24 46.67 10.25 46.91 10.27L46.9 12.51Z" fill="url(#paint_linear_504_302_0)" fill-opacity="1.000000" fill-rule="nonzero"/>
	<path id="Vector" d="M61.57 5.7C62.7 5.69 63.8 6.02 64.74 6.64C65.68 7.27 66.42 8.15 66.85 9.19C67.29 10.23 67.41 11.38 67.19 12.49C66.98 13.59 66.44 14.61 65.64 15.41C64.85 16.22 63.84 16.76 62.73 16.99C61.63 17.21 60.48 17.11 59.44 16.68C58.39 16.25 57.5 15.53 56.87 14.59C56.24 13.66 55.89 12.56 55.89 11.43C55.88 9.92 56.48 8.46 57.54 7.39C58.61 6.31 60.06 5.7 61.57 5.7ZM61.6 7.98C60.92 7.98 60.26 8.17 59.69 8.55C59.12 8.92 58.68 9.45 58.42 10.08C58.16 10.7 58.08 11.39 58.21 12.05C58.34 12.72 58.66 13.33 59.13 13.81C59.61 14.3 60.22 14.63 60.88 14.77C61.54 14.9 62.23 14.84 62.86 14.59C63.49 14.33 64.03 13.9 64.41 13.34C64.79 12.78 65 12.12 65.01 11.44C65.01 10.99 64.93 10.54 64.76 10.13C64.59 9.71 64.34 9.33 64.02 9C63.7 8.68 63.33 8.43 62.91 8.25C62.49 8.08 62.05 7.98 61.6 7.98Z" fill="url(#paint_linear_504_303_0)" fill-opacity="1.000000" fill-rule="nonzero"/>
	<path id="Vector" d="M17.11 54.77C17.1 55.89 16.76 56.99 16.13 57.93C15.5 58.86 14.61 59.59 13.57 60.02C12.52 60.44 11.38 60.55 10.27 60.33C9.17 60.11 8.15 59.56 7.36 58.76C6.57 57.96 6.03 56.95 5.81 55.84C5.59 54.73 5.71 53.59 6.14 52.55C6.57 51.51 7.3 50.62 8.24 49.99C9.18 49.37 10.28 49.04 11.41 49.04C12.92 49.04 14.38 49.65 15.44 50.72C16.51 51.8 17.11 53.25 17.11 54.77ZM11.42 58.16C12.1 58.16 12.76 57.96 13.33 57.58C13.89 57.21 14.33 56.67 14.59 56.05C14.85 55.42 14.92 54.73 14.79 54.07C14.65 53.4 14.33 52.79 13.85 52.31C13.37 51.83 12.76 51.51 12.1 51.37C11.44 51.24 10.75 51.3 10.12 51.56C9.49 51.82 8.96 52.26 8.58 52.82C8.2 53.38 8 54.04 7.99 54.72C7.99 55.17 8.08 55.62 8.25 56.04C8.42 56.45 8.68 56.83 8.99 57.15C9.31 57.47 9.69 57.73 10.11 57.9C10.52 58.07 10.97 58.16 11.42 58.16Z" fill="url(#paint_linear_504_304_0)" fill-opacity="1.000000" fill-rule="nonzero"/>
</svg>
