<svg width="302.000000" height="207.000000" viewBox="0 0 302 207" fill="none" xmlns="http://www.w3.org/2000/svg" xmlns:xlink="http://www.w3.org/1999/xlink">
	<defs/>
	<path id="Vector 7" d="M12.36 32.55Q18.56 16.65 28.25 2.1L24.92 -0.11Q15.08 14.64 8.76 30.78Q7.43 34.16 6.26 37.61Q-1.92 61.63 0.2 81.7Q1.68 95.7 8.12 106.82Q12.78 114.86 20.03 121.4Q39.86 139.28 78.1 144.74Q90.14 146.46 100.88 146.68Q104.19 149.9 107.99 153.11Q138.93 179.21 187.18 190.73Q195.04 192.61 202.98 193.98Q247.56 201.72 294.86 193.81L288.48 203.05C287.85 203.97 288.07 205.19 288.99 205.83C289.92 206.46 291.14 206.24 291.78 205.32L300.86 192.15C301.5 191.23 301.28 190 300.35 189.37L287.19 180.28C286.26 179.64 285.04 179.87 284.4 180.79C283.77 181.71 283.99 182.93 284.91 183.57L294.06 189.89Q247.23 197.7 203.13 189.95Q195.58 188.62 188.11 186.84Q140.79 175.54 110.57 150.05Q108.58 148.37 106.73 146.68Q133.8 146.17 151.99 135.43Q166.23 127.02 172.44 114.59Q176.32 106.82 177.07 97.49Q177.56 91.29 176.41 85.41Q175.59 81.24 173.95 77.23Q171.27 70.73 166.87 65.76Q164.66 63.28 162.02 61.17Q156.27 56.6 149.73 54.51Q135.46 49.95 117.41 57.2Q88.17 68.95 80.96 88.73Q78.84 94.54 78.62 101.04Q78.57 102.53 78.62 104.02Q79.25 123.56 96.84 142.54Q88.18 142.14 78.67 140.78Q29.36 133.74 12.5 106.56Q5.68 95.57 4.18 81.28Q2.15 62.08 10.04 38.9Q11.13 35.7 12.36 32.55ZM102.55 142.71Q131.32 142.99 149.95 131.98Q163.31 124.09 169 112.46Q172.42 105.49 173.08 97.17Q173.54 91.44 172.45 86.03Q171.71 82.32 170.25 78.75Q167.77 72.73 163.66 68.18Q161.77 66.09 159.53 64.3Q154.64 60.41 149.06 58.53Q135.89 54.08 118.91 60.91Q90.87 72.18 84.48 90.85Q82.81 95.76 82.62 101.17Q82.59 102.08 82.6 103Q82.82 122.96 102.55 142.71Z" fill="#FFFFFF" fill-opacity="1.000000" fill-rule="evenodd"/>
</svg>
