<svg width="36.820724" height="29.750458" viewBox="0 0 36.8207 29.7505" fill="none" xmlns="http://www.w3.org/2000/svg" xmlns:xlink="http://www.w3.org/1999/xlink">
	<desc>
			Created with Pixso.
	</desc>
	<defs/>
	<path id="Vector 6" d="M33.76 7.17Q35.24 7.39 36.7 7.74L36.82 7.25Q35.3 6.89 33.76 6.66Q29.77 6.06 25.65 6.34Q25.44 5.67 25.1 5.03Q24.88 4.63 24.61 4.26Q21.74 0.24 13.26 0.25Q8.75 0.25 5.77 2.38Q1.98 5.09 0.65 11.26Q-0.38 16.05 0.21 20.64Q0.77 24.95 2.77 29.07L1.43 28.64C1.3 28.59 1.16 28.66 1.12 28.8C1.08 28.93 1.15 29.07 1.28 29.11L3.18 29.73C3.31 29.78 3.45 29.71 3.5 29.57L4.12 27.67C4.16 27.54 4.09 27.4 3.96 27.36C3.82 27.31 3.68 27.38 3.64 27.52L3.21 28.84Q1.26 24.8 0.71 20.58Q0.12 16.07 1.14 11.36Q2.42 5.39 6.09 2.78Q8.95 0.75 13.26 0.75Q21.57 0.74 24.27 4.64Q24.48 4.94 24.66 5.27Q24.94 5.81 25.13 6.38Q21.07 6.71 16.88 7.88Q11.51 9.38 9.44 12.08Q8.66 13.1 8.39 14.25Q7.82 16.66 9.54 19.62Q10.74 21.68 12.46 22.29Q14.43 23.01 17.09 21.82Q17.42 21.67 17.74 21.5Q21.73 19.44 24.29 14.61Q26.61 10.24 25.79 6.83Q29.84 6.57 33.76 7.17ZM25.28 6.87Q21.21 7.19 17.01 8.36Q11.81 9.82 9.84 12.38Q9.15 13.28 8.9 14.29Q8.33 16.55 9.97 19.37Q11.06 21.23 12.62 21.8Q14.43 22.46 16.88 21.36Q17.15 21.24 17.41 21.11Q21.33 19.13 23.85 14.38Q26.1 10.13 25.28 6.87Z" fill="#FFFFFF" fill-opacity="1.000000" fill-rule="evenodd"/>
	<path id="Vector" d="M28.76 20.96C28.74 20.99 28.72 21.03 28.7 21.05C28.34 21.42 27.98 21.79 27.62 22.15C27.61 22.17 27.6 22.18 27.59 22.2C27.59 22.22 27.58 22.24 27.59 22.26C27.68 22.78 27.76 23.3 27.85 23.82C27.86 23.88 27.85 23.93 27.8 23.97C27.75 24.01 27.7 24 27.65 23.97C27.2 23.72 26.76 23.48 26.32 23.24C26.3 23.22 26.28 23.22 26.26 23.22C26.24 23.22 26.22 23.22 26.2 23.23C25.76 23.48 25.32 23.72 24.88 23.96C24.87 23.97 24.86 23.97 24.85 23.98C24.83 23.99 24.8 24 24.78 23.99C24.75 23.99 24.73 23.98 24.71 23.97C24.69 23.95 24.68 23.93 24.67 23.91C24.66 23.88 24.66 23.86 24.67 23.83C24.74 23.38 24.82 22.92 24.89 22.46C24.9 22.39 24.91 22.33 24.92 22.26C24.94 22.21 24.92 22.18 24.88 22.14C24.53 21.78 24.18 21.42 23.83 21.06C23.82 21.05 23.81 21.04 23.8 21.04C23.78 21.02 23.77 21 23.76 20.97C23.76 20.95 23.76 20.92 23.76 20.89C23.77 20.87 23.79 20.85 23.81 20.83C23.83 20.81 23.85 20.8 23.87 20.8L24.62 20.69C24.88 20.65 25.13 20.61 25.39 20.57C25.41 20.57 25.42 20.57 25.44 20.56C25.45 20.55 25.46 20.53 25.47 20.51C25.68 20.05 25.9 19.59 26.12 19.13C26.12 19.12 26.13 19.1 26.14 19.09C26.15 19.06 26.16 19.04 26.18 19.02C26.21 19 26.23 18.99 26.26 19C26.32 19 26.36 19.03 26.38 19.09C26.56 19.46 26.73 19.84 26.91 20.21C26.96 20.31 27.01 20.41 27.05 20.51C27.05 20.53 27.07 20.54 27.08 20.55C27.1 20.57 27.11 20.57 27.13 20.57C27.44 20.62 27.75 20.67 28.06 20.71C28.25 20.74 28.45 20.77 28.64 20.8C28.71 20.81 28.76 20.86 28.76 20.96Z" fill="#FFFFFF" fill-opacity="1.000000" fill-rule="nonzero"/>
	<path id="Vector" d="M15.76 13.57C15.74 13.59 15.73 13.62 15.71 13.64C15.42 13.94 15.14 14.23 14.85 14.52C14.84 14.53 14.83 14.54 14.82 14.56C14.82 14.57 14.82 14.59 14.82 14.6C14.89 15.02 14.96 15.44 15.03 15.85C15.04 15.9 15.03 15.94 14.99 15.97C14.95 16 14.91 16 14.87 15.97C14.51 15.78 14.16 15.58 13.81 15.39C13.79 15.38 13.78 15.37 13.76 15.37C13.74 15.37 13.73 15.38 13.71 15.39C13.36 15.58 13.01 15.78 12.66 15.97C12.65 15.97 12.64 15.98 12.63 15.98C12.61 15.99 12.59 16 12.57 15.99C12.55 15.99 12.54 15.98 12.52 15.97C12.51 15.96 12.49 15.94 12.49 15.92C12.48 15.91 12.48 15.89 12.48 15.87C12.54 15.5 12.6 15.13 12.66 14.77C12.67 14.71 12.68 14.66 12.69 14.61C12.7 14.57 12.69 14.54 12.66 14.51C12.38 14.23 12.09 13.94 11.81 13.65C11.81 13.64 11.8 13.63 11.79 13.63C11.78 13.61 11.77 13.6 11.76 13.58C11.76 13.56 11.76 13.53 11.76 13.51C11.77 13.49 11.78 13.48 11.8 13.46C11.81 13.45 11.83 13.44 11.85 13.44L12.45 13.35C12.65 13.32 12.86 13.29 13.06 13.26C13.08 13.26 13.09 13.25 13.1 13.24C13.11 13.24 13.12 13.22 13.12 13.21C13.3 12.84 13.47 12.47 13.64 12.1C13.65 12.09 13.66 12.08 13.66 12.07C13.67 12.05 13.68 12.03 13.7 12.01C13.72 12 13.74 11.99 13.76 12C13.81 12 13.84 12.03 13.86 12.07C14 12.37 14.14 12.67 14.28 12.97C14.32 13.05 14.36 13.13 14.39 13.21C14.4 13.22 14.4 13.23 14.42 13.24C14.43 13.25 14.44 13.26 14.46 13.26C14.7 13.3 14.95 13.33 15.2 13.37C15.35 13.39 15.51 13.42 15.66 13.44C15.72 13.45 15.76 13.49 15.76 13.57Z" fill="#FFFFFF" fill-opacity="1.000000" fill-rule="nonzero"/>
	<path id="Vector" d="M30.76 0.78C30.75 0.79 30.74 0.81 30.73 0.82C30.59 0.97 30.45 1.11 30.3 1.26C30.3 1.26 30.29 1.27 30.29 1.28C30.29 1.28 30.29 1.29 30.29 1.3C30.33 1.51 30.36 1.72 30.39 1.92C30.4 1.95 30.39 1.97 30.37 1.98C30.36 2 30.33 2 30.31 1.98C30.14 1.89 29.96 1.79 29.78 1.69C29.78 1.69 29.77 1.68 29.76 1.68C29.75 1.68 29.74 1.69 29.73 1.69C29.56 1.79 29.38 1.89 29.21 1.98C29.2 1.98 29.2 1.99 29.19 1.99C29.18 1.99 29.18 2 29.17 1.99C29.16 1.99 29.15 1.99 29.14 1.98C29.13 1.98 29.13 1.97 29.12 1.96C29.12 1.95 29.12 1.94 29.12 1.93C29.15 1.75 29.18 1.56 29.21 1.38C29.21 1.35 29.22 1.33 29.22 1.3C29.23 1.28 29.22 1.27 29.21 1.25C29.07 1.11 28.93 0.97 28.79 0.82C28.78 0.82 28.78 0.81 28.78 0.81C28.77 0.8 28.76 0.8 28.76 0.79C28.76 0.78 28.76 0.76 28.76 0.75C28.76 0.74 28.77 0.74 28.78 0.73C28.79 0.72 28.79 0.72 28.8 0.72L29.1 0.67C29.21 0.66 29.31 0.64 29.41 0.63C29.42 0.63 29.42 0.62 29.43 0.62C29.43 0.62 29.44 0.61 29.44 0.6C29.53 0.42 29.61 0.23 29.7 0.05C29.7 0.04 29.71 0.04 29.71 0.03C29.71 0.02 29.72 0.01 29.73 0C29.74 0 29.75 -0.01 29.76 0C29.78 0 29.8 0.01 29.81 0.03C29.88 0.18 29.95 0.33 30.02 0.48C30.04 0.52 30.06 0.56 30.07 0.6C30.08 0.61 30.08 0.61 30.09 0.62C30.09 0.62 30.1 0.63 30.11 0.63C30.23 0.65 30.36 0.66 30.48 0.68C30.56 0.69 30.63 0.71 30.71 0.72C30.74 0.72 30.76 0.74 30.76 0.78Z" fill="#FFFFFF" fill-opacity="1.000000" fill-rule="nonzero"/>
</svg>
