<svg width="14" height="15" viewBox="0 0 14 15" fill="none" xmlns="http://www.w3.org/2000/svg">
<path d="M7 4.31262C5.4168 4.31262 4.30769 5.45037 4.30769 7.03538C4.30769 8.62039 5.4168 9.70339 7 9.70339C8.5832 9.70339 9.69231 8.59302 9.69231 7.008C9.69231 5.42299 8.5832 4.31262 7 4.31262ZM7 4.31262C5.4168 4.31262 4.30769 5.45037 4.30769 7.03538C4.30769 8.62039 5.4168 9.70339 7 9.70339C8.5832 9.70339 9.69231 8.59302 9.69231 7.008C9.69231 5.42299 8.5832 4.31262 7 4.31262ZM11.9492 0H2.05078C1.07692 0 0 1.07815 0 2.05313V11.9629C0 12.9379 1.07692 14.016 2.05078 14.016H11.9492C12.9231 14.016 14 12.9379 14 11.9629V2.05313C14 1.07815 12.9231 0 11.9492 0ZM7 10.731C4.96565 10.731 3.30859 9.07205 3.30859 7.03538C3.30859 4.99865 4.96565 3.33975 7 3.33975C9.03435 3.33975 10.6914 4.99865 10.6914 7.03538C10.6914 9.07205 9.03435 10.731 7 10.731ZM11.5117 3.33975C11.0605 3.33975 10.6914 2.97019 10.6914 2.5185C10.6914 2.06681 11.0605 1.69725 11.5117 1.69725C11.9629 1.69725 12.332 2.06681 12.332 2.5185C12.332 2.97019 11.9629 3.33975 11.5117 3.33975ZM7 4.31262C5.4168 4.31262 4.30769 5.45037 4.30769 7.03538C4.30769 8.62039 5.4168 9.70339 7 9.70339C8.5832 9.70339 9.69231 8.59302 9.69231 7.008C9.69231 5.42299 8.5832 4.31262 7 4.31262ZM7 4.31262C5.4168 4.31262 4.30769 5.45037 4.30769 7.03538C4.30769 8.62039 5.4168 9.70339 7 9.70339C8.5832 9.70339 9.69231 8.59302 9.69231 7.008C9.69231 5.42299 8.5832 4.31262 7 4.31262ZM7 4.31262C5.4168 4.31262 4.30769 5.45037 4.30769 7.03538C4.30769 8.62039 5.4168 9.70339 7 9.70339C8.5832 9.70339 9.69231 8.59302 9.69231 7.008C9.69231 5.42299 8.5832 4.31262 7 4.31262Z" fill="#262525"/>
</svg>
