<svg width="18" height="14" viewBox="0 0 18 14" fill="none" xmlns="http://www.w3.org/2000/svg">
<path d="M16.2044 11.9999C16.1211 12.3036 16.0865 12.6163 15.9818 12.9149C15.9291 13.074 15.863 13.2291 15.7842 13.3785C15.4904 13.9119 15.0902 14.0875 14.4636 13.9605C14.0444 13.8755 13.677 13.6847 13.3326 13.4562C12.382 12.8253 11.3987 12.2411 10.4394 11.6207C10.407 11.6007 10.3746 11.5855 10.3422 11.5682C9.80798 11.1994 9.24684 10.8676 8.69834 10.5183C8.49261 10.3873 8.28914 10.2549 8.11516 10.0872C7.72185 9.70988 7.69917 9.35262 8.05199 8.94189C8.35783 8.58615 8.72393 8.28388 9.07643 7.97128C10.3976 6.79895 11.7487 5.65609 13.029 4.44396C13.1959 4.28568 13.3498 4.11556 13.5098 3.95121C13.6103 3.84792 13.6174 3.73278 13.5474 3.61522C13.4797 3.50221 13.3631 3.5101 13.2468 3.52195C13.1172 3.53502 13.0167 3.60489 12.9121 3.66625C11.6991 4.37469 10.5204 5.13417 9.33173 5.87877C8.23698 6.56442 7.14904 7.25919 6.0543 7.94455C5.60655 8.22495 5.12802 8.44003 4.58016 8.49137C4.13242 8.53269 3.70541 8.42818 3.27775 8.3337C2.63496 8.19123 2.0074 7.99801 1.3779 7.81149C1.04549 7.71275 0.71114 7.62526 0.401734 7.47337C0.26728 7.40714 0.135095 7.34091 0.0596062 7.19995C0.000889117 7.08931 -0.0150588 6.96298 0.0144838 6.84254C0.0440264 6.72209 0.117229 6.61499 0.221599 6.53951C0.61038 6.25364 1.06396 6.09507 1.50685 5.91097C2.09715 5.66277 2.69425 5.43493 3.28714 5.19493C4.0187 4.89934 4.74734 4.59829 5.47825 4.30239C6.8027 3.7665 8.12747 3.23173 9.45257 2.69807C10.7291 2.18163 12.0095 1.67247 13.2996 1.18549C14.2786 0.816083 15.2516 0.430268 16.2634 0.144097C16.6123 0.0456683 16.9661 -0.050026 17.3406 0.0295673C17.7991 0.127084 17.9293 0.312397 17.9854 0.74135C18.0304 1.08524 17.9604 1.42215 17.9251 1.76239C17.8665 2.33109 17.7809 2.89614 17.696 3.4615C17.512 4.68851 17.3073 5.91218 17.0934 7.13494C16.8329 8.62777 16.5627 10.1164 16.2715 11.6049C16.2697 11.6251 16.2697 11.6455 16.2715 11.6657C16.2543 11.7447 16.2371 11.824 16.2203 11.9029C16.2141 11.9342 16.2096 11.9664 16.2044 11.9999Z" fill="#262525"/>
</svg>
