<svg width="17" height="12" viewBox="0 0 17 12" fill="none" xmlns="http://www.w3.org/2000/svg">
<path d="M16.3374 1.02816C15.7238 0.297886 14.5908 0 12.4272 0H4.5728C2.35955 0 1.20739 0.317102 0.596044 1.09458C0 1.85265 0 2.96958 0 4.51545V7.46187C0 10.4567 0.707202 11.9773 4.5728 11.9773H12.4272C14.3034 11.9773 15.3433 11.7144 16.016 11.0699C16.7058 10.4091 17 9.33001 17 7.46187V4.51545C17 2.8852 16.9539 1.76168 16.3374 1.02816ZM10.9141 6.39544L7.34747 8.26154C7.26774 8.30326 7.18054 8.32396 7.09345 8.32396C6.99485 8.32396 6.89648 8.29739 6.80934 8.24457C6.64526 8.14504 6.54506 7.967 6.54506 7.77496V4.05473C6.54506 3.86302 6.64498 3.68515 6.80874 3.58555C6.97254 3.48597 7.17626 3.47917 7.34621 3.56755L10.9128 5.42162C11.0943 5.51594 11.2082 5.70349 11.2085 5.9081C11.2087 6.11288 11.0953 6.30068 10.9141 6.39544Z" fill="#262525"/>
</svg>
